<svg id="Layer_1" data-name="Layer 1" xmlns="http://www.w3.org/2000/svg" viewBox="0 0 750 500"><defs><style>.cls-1,.cls-12{fill:#e43c4a;}.cls-1{opacity:0.42;}.cls-19,.cls-2{fill:#fff;}.cls-3{fill:#ebebeb;}.cls-4{fill:#e0e0e0;}.cls-5{fill:#f5f5f5;}.cls-18,.cls-6,.cls-7{fill:none;stroke-miterlimit:10;}.cls-6,.cls-7{stroke:#445a64;}.cls-6{stroke-width:0.5px;}.cls-8{fill:#455a64;}.cls-9{fill:#263238;}.cls-10{fill:#b78876;}.cls-11{fill:#aa6550;}.cls-13{opacity:0.3;}.cls-14{fill:#ffbe9d;}.cls-15{fill:#eb996e;}.cls-16{fill:#fafafa;}.cls-17{opacity:0.2;}.cls-18{stroke:#455a64;}.cls-19{font-size:12px;font-family:Gilroy-ExtraBold, Gilroy;font-weight:800;}</style></defs><title>landing</title><path class="cls-1" d="M72.54,450.47S3.73,333.61,37.59,281.87,77,127.6,147.12,80.06,261,27.15,345.5,53.6s180.39,23.71,207,4,105.17,29.31,119.34,62.3,114.64,278.43-17.14,328.26Z"/><g id="freepik--background-complete--inject-67"><rect class="cls-2" x="276.84" y="115.57" width="205.74" height="119.88"/><path class="cls-3" d="M483.28,236.16H276.13V114.86H483.28Z"/><path class="cls-4" d="M292.93,229.41c-.11,0-.2-24.51-.2-54.74s.09-54.75.2-54.75.19,24.51.19,54.75S293,229.41,292.93,229.41Z"/><path class="cls-4" d="M288.7,124.53a28.81,28.81,0,0,1-6.82,0A31.1,31.1,0,0,1,288.7,124.53Z"/><path class="cls-4" d="M288.7,131.75a28.81,28.81,0,0,1-6.82,0A28.81,28.81,0,0,1,288.7,131.75Z"/><path class="cls-4" d="M288.7,139a31.1,31.1,0,0,1-6.82,0A28.81,28.81,0,0,1,288.7,139Z"/><path class="cls-4" d="M288.7,146.18a28.81,28.81,0,0,1-6.82,0A28.81,28.81,0,0,1,288.7,146.18Z"/><path class="cls-4" d="M288.7,153.4a31.1,31.1,0,0,1-6.82,0A28.81,28.81,0,0,1,288.7,153.4Z"/><path class="cls-4" d="M288.7,160.61a28.81,28.81,0,0,1-6.82,0A28.81,28.81,0,0,1,288.7,160.61Z"/><path class="cls-4" d="M288.7,167.83a31.1,31.1,0,0,1-6.82,0A28.81,28.81,0,0,1,288.7,167.83Z"/><path class="cls-4" d="M288.7,175a28.81,28.81,0,0,1-6.82,0A28.81,28.81,0,0,1,288.7,175Z"/><path class="cls-4" d="M288.7,182.26a31.1,31.1,0,0,1-6.82,0A28.81,28.81,0,0,1,288.7,182.26Z"/><path class="cls-4" d="M288.7,189.47a28.81,28.81,0,0,1-6.82,0A28.81,28.81,0,0,1,288.7,189.47Z"/><path class="cls-4" d="M288.7,196.69a31.1,31.1,0,0,1-6.82,0A28.81,28.81,0,0,1,288.7,196.69Z"/><path class="cls-4" d="M288.7,203.9a28.81,28.81,0,0,1-6.82,0A28.81,28.81,0,0,1,288.7,203.9Z"/><path class="cls-4" d="M288.7,211.12a31.1,31.1,0,0,1-6.82,0A28.81,28.81,0,0,1,288.7,211.12Z"/><path class="cls-4" d="M288.7,218.33a28.81,28.81,0,0,1-6.82,0A31.1,31.1,0,0,1,288.7,218.33Z"/><path class="cls-4" d="M288.7,225.55a31.1,31.1,0,0,1-6.82,0A28.81,28.81,0,0,1,288.7,225.55Z"/><path class="cls-4" d="M316,124.11c0,.11-4,.2-8.84.2s-8.85-.09-8.85-.2,4-.2,8.85-.2S316,124,316,124.11Z"/><path class="cls-4" d="M316,225.55c0,.11-4,.19-8.84.19s-8.85-.08-8.85-.19,4-.2,8.85-.2S316,225.44,316,225.55Z"/><path class="cls-4" d="M340.63,139c0,.1-7.4.19-16.54.19s-16.54-.09-16.54-.19,7.4-.2,16.54-.2S340.63,138.86,340.63,139Z"/><path class="cls-4" d="M378.89,139c0,.1-7.41.19-16.54.19s-16.55-.09-16.55-.19,7.41-.2,16.55-.2S378.89,138.86,378.89,139Z"/><path class="cls-4" d="M364.27,146.18c0,.11-10.92.2-24.38.2s-24.38-.09-24.38-.2,10.91-.2,24.38-.2S364.27,146.07,364.27,146.18Z"/><path class="cls-4" d="M364.27,153.4c0,.1-10.92.19-24.38.19s-24.38-.09-24.38-.19,10.91-.2,24.38-.2S364.27,153.29,364.27,153.4Z"/><path class="cls-4" d="M397.83,175c0,.11-10.92.2-24.38.2s-24.38-.09-24.38-.2,10.92-.2,24.38-.2S397.83,174.93,397.83,175Z"/><path class="cls-4" d="M383.35,160.61c0,.11-10.92.2-24.38.2s-24.38-.09-24.38-.2,10.91-.2,24.38-.2S383.35,160.5,383.35,160.61Z"/><path class="cls-4" d="M442.93,160.61c0,.11-10.92.2-24.38.2s-24.38-.09-24.38-.2,10.92-.2,24.38-.2S442.93,160.5,442.93,160.61Z"/><path class="cls-4" d="M422.21,146.18c0,.11-10.92.2-24.38.2s-24.38-.09-24.38-.2,10.91-.2,24.38-.2S422.21,146.07,422.21,146.18Z"/><path class="cls-4" d="M455.89,175c0,.11-10.92.2-24.38.2s-24.38-.09-24.38-.2,10.91-.2,24.38-.2S455.89,174.93,455.89,175Z"/><path class="cls-4" d="M449.16,153.4c0,.1-17,.19-37.85.19s-37.86-.09-37.86-.19,16.95-.2,37.86-.2S449.16,153.29,449.16,153.4Z"/><path class="cls-4" d="M316,131.75c0,.11-4,.2-8.84.2s-8.85-.09-8.85-.2,4-.2,8.85-.2S316,131.64,316,131.75Z"/><path class="cls-4" d="M316,218.33c0,.11-4,.2-8.84.2s-8.85-.09-8.85-.2,4-.19,8.85-.19S316,218.22,316,218.33Z"/><path class="cls-4" d="M324.77,160.61c0,.11-4,.2-8.84.2s-8.85-.09-8.85-.2,4-.2,8.85-.2S324.77,160.5,324.77,160.61Z"/><path class="cls-4" d="M466.49,160.61c0,.11-4,.2-8.84.2s-8.84-.09-8.84-.2,3.95-.2,8.84-.2S466.49,160.5,466.49,160.61Z"/><path class="cls-4" d="M340.63,189.43c0,.11-7.4.2-16.54.2s-16.54-.09-16.54-.2,7.4-.2,16.54-.2S340.63,189.32,340.63,189.43Z"/><path class="cls-4" d="M378.89,189.43c0,.11-7.41.2-16.54.2s-16.55-.09-16.55-.2,7.41-.2,16.55-.2S378.89,189.32,378.89,189.43Z"/><path class="cls-4" d="M364.27,196.64c0,.11-10.92.2-24.38.2s-24.38-.09-24.38-.2,10.91-.19,24.38-.19S364.27,196.54,364.27,196.64Z"/><path class="cls-4" d="M364.27,203.86c0,.11-10.92.2-24.38.2s-24.38-.09-24.38-.2,10.91-.2,24.38-.2S364.27,203.75,364.27,203.86Z"/><path class="cls-4" d="M383.35,211.07c0,.11-10.92.2-24.38.2s-24.38-.09-24.38-.2,10.91-.19,24.38-.19S383.35,211,383.35,211.07Z"/><path class="cls-4" d="M442.93,211.07c0,.11-10.92.2-24.38.2s-24.38-.09-24.38-.2,10.92-.19,24.38-.19S442.93,211,442.93,211.07Z"/><path class="cls-4" d="M422.21,196.64c0,.11-10.92.2-24.38.2s-24.38-.09-24.38-.2,10.91-.19,24.38-.19S422.21,196.54,422.21,196.64Z"/><path class="cls-4" d="M449.16,203.86c0,.11-17,.2-37.85.2s-37.86-.09-37.86-.2,16.95-.2,37.86-.2S449.16,203.75,449.16,203.86Z"/><path class="cls-4" d="M324.77,211.07c0,.11-4,.2-8.84.2s-8.85-.09-8.85-.2,4-.19,8.85-.19S324.77,211,324.77,211.07Z"/><path class="cls-4" d="M466.49,211.07c0,.11-4,.2-8.84.2s-8.84-.09-8.84-.2,3.95-.19,8.84-.19S466.49,211,466.49,211.07Z"/><rect class="cls-4" x="38.98" y="180.26" width="69.96" height="49.87"/><path class="cls-2" d="M109.48,187.66c0,.12-15.79.22-35.26.22S39,187.78,39,187.66s15.78-.22,35.27-.22S109.48,187.54,109.48,187.66Z"/><path class="cls-2" d="M44.69,184a.9.9,0,0,1-.95.83.84.84,0,0,1-.26-1.66h.26A.9.9,0,0,1,44.69,184Z"/><path class="cls-2" d="M48.12,184a.95.95,0,1,1-1.06-.82h.12A.89.89,0,0,1,48.12,184Z"/><path class="cls-2" d="M51.55,184a.95.95,0,1,1-1.06-.82h.12A.89.89,0,0,1,51.55,184Z"/><rect class="cls-2" x="254.32" y="253.75" width="105.52" height="61.49"/><path class="cls-5" d="M360.21,315.6H254V253.39H360.21Z"/><path class="cls-4" d="M262.58,312.14c-.06,0-.11-12.57-.11-28.08s0-28.08.11-28.08.1,12.57.1,28.08S262.63,312.14,262.58,312.14Z"/><path class="cls-4" d="M260.41,258.35a15.75,15.75,0,0,1-3.5,0A15.75,15.75,0,0,1,260.41,258.35Z"/><path class="cls-4" d="M260.41,262.05a15.75,15.75,0,0,1-3.5,0A15.75,15.75,0,0,1,260.41,262.05Z"/><path class="cls-4" d="M260.41,265.75a15.75,15.75,0,0,1-3.5,0A15.75,15.75,0,0,1,260.41,265.75Z"/><path class="cls-4" d="M260.41,269.45a15.75,15.75,0,0,1-3.5,0A15.75,15.75,0,0,1,260.41,269.45Z"/><path class="cls-4" d="M260.41,273.15a15.75,15.75,0,0,1-3.5,0A15.75,15.75,0,0,1,260.41,273.15Z"/><path class="cls-4" d="M260.41,276.85a15.75,15.75,0,0,1-3.5,0A15.75,15.75,0,0,1,260.41,276.85Z"/><path class="cls-4" d="M260.41,280.55a15.75,15.75,0,0,1-3.5,0A15.75,15.75,0,0,1,260.41,280.55Z"/><path class="cls-4" d="M260.41,284.25a15.75,15.75,0,0,1-3.5,0A15.75,15.75,0,0,1,260.41,284.25Z"/><path class="cls-4" d="M260.41,288a15.75,15.75,0,0,1-3.5,0A15.75,15.75,0,0,1,260.41,288Z"/><path class="cls-4" d="M260.41,291.65a13.67,13.67,0,0,1-3.5,0A15.75,15.75,0,0,1,260.41,291.65Z"/><path class="cls-4" d="M260.41,295.36a15.75,15.75,0,0,1-3.5,0A13.67,13.67,0,0,1,260.41,295.36Z"/><path class="cls-4" d="M260.41,299.06a15.75,15.75,0,0,1-3.5,0A13.67,13.67,0,0,1,260.41,299.06Z"/><path class="cls-4" d="M260.41,302.76a15.75,15.75,0,0,1-3.5,0A15.75,15.75,0,0,1,260.41,302.76Z"/><path class="cls-4" d="M260.41,306.46a15.75,15.75,0,0,1-3.5,0A15.75,15.75,0,0,1,260.41,306.46Z"/><path class="cls-4" d="M260.41,310.16a15.75,15.75,0,0,1-3.5,0A15.75,15.75,0,0,1,260.41,310.16Z"/><path class="cls-4" d="M274.41,258.13c0,.06-2,.1-4.53.1a36.5,36.5,0,0,1-4.54-.1,36.39,36.39,0,0,1,4.54-.1C272.42,258,274.41,258.07,274.41,258.13Z"/><path class="cls-4" d="M274.41,310.16s-2,.1-4.53.1-4.54-.05-4.54-.1,2-.1,4.54-.1S274.41,310.1,274.41,310.16Z"/><path class="cls-4" d="M287,265.75c0,.06-3.8.1-8.48.1s-8.49,0-8.49-.1,3.8-.1,8.49-.1S287,265.69,287,265.75Z"/><path class="cls-4" d="M306.67,265.75c0,.06-3.8.1-8.49.1s-8.48,0-8.48-.1,3.79-.1,8.48-.1S306.67,265.69,306.67,265.75Z"/><path class="cls-4" d="M299.17,269.45c0,.06-5.6.1-12.51.1s-12.5,0-12.5-.1,5.6-.1,12.5-.1S299.17,269.39,299.17,269.45Z"/><path class="cls-4" d="M299.17,273.15c0,.06-5.6.1-12.51.1s-12.5,0-12.5-.1,5.6-.1,12.5-.1S299.17,273.1,299.17,273.15Z"/><path class="cls-4" d="M316.38,284.25c0,.06-5.6.1-12.5.1s-12.51,0-12.51-.1,5.6-.1,12.51-.1S316.38,284.2,316.38,284.25Z"/><path class="cls-4" d="M309,276.85c0,.06-5.6.1-12.5.1s-12.51,0-12.51-.1,5.6-.1,12.51-.1S309,276.8,309,276.85Z"/><path class="cls-4" d="M339.51,276.85c0,.06-5.6.1-12.5.1s-12.51,0-12.51-.1,5.6-.1,12.51-.1S339.51,276.8,339.51,276.85Z"/><path class="cls-4" d="M328.88,269.45c0,.06-5.59.1-12.5.1s-12.5,0-12.5-.1,5.59-.1,12.5-.1S328.88,269.39,328.88,269.45Z"/><path class="cls-4" d="M346.16,284.25c0,.06-5.6.1-12.5.1s-12.51,0-12.51-.1,5.6-.1,12.51-.1S346.16,284.2,346.16,284.25Z"/><path class="cls-4" d="M342.71,273.15c0,.06-8.69.1-19.42.1s-19.41,0-19.41-.1,8.69-.1,19.41-.1S342.71,273.1,342.71,273.15Z"/><path class="cls-4" d="M274.41,262.05c0,.05-2,.1-4.53.1a36.5,36.5,0,0,1-4.54-.1,36.39,36.39,0,0,1,4.54-.1C272.42,262,274.41,262,274.41,262.05Z"/><path class="cls-4" d="M274.41,306.46c0,.05-2,.1-4.53.1s-4.54-.05-4.54-.1,2-.1,4.54-.1S274.41,306.4,274.41,306.46Z"/><path class="cls-4" d="M278.91,276.85c0,.06-2,.1-4.54.1a36.17,36.17,0,0,1-4.53-.1,36.28,36.28,0,0,1,4.53-.1C276.9,276.75,278.91,276.8,278.91,276.85Z"/><path class="cls-4" d="M351.6,276.85c0,.06-2,.1-4.54.1a36.17,36.17,0,0,1-4.53-.1,36.28,36.28,0,0,1,4.53-.1C349.59,276.75,351.6,276.8,351.6,276.85Z"/><path class="cls-4" d="M287,291.63c0,.06-3.8.1-8.48.1s-8.49,0-8.49-.1,3.8-.1,8.49-.1S287,291.58,287,291.63Z"/><path class="cls-4" d="M306.67,291.63c0,.06-3.8.1-8.49.1s-8.48,0-8.48-.1,3.79-.1,8.48-.1S306.67,291.58,306.67,291.63Z"/><path class="cls-4" d="M299.17,295.33c0,.06-5.6.1-12.51.1s-12.5,0-12.5-.1,5.6-.1,12.5-.1S299.17,295.28,299.17,295.33Z"/><path class="cls-4" d="M299.17,299c0,.06-5.6.11-12.51.11s-12.5-.05-12.5-.11,5.6-.1,12.5-.1S299.17,299,299.17,299Z"/><path class="cls-4" d="M309,302.73c0,.06-5.6.11-12.5.11s-12.51,0-12.51-.11,5.6-.1,12.51-.1S309,302.68,309,302.73Z"/><path class="cls-4" d="M339.51,302.73c0,.06-5.6.11-12.5.11s-12.51,0-12.51-.11,5.6-.1,12.51-.1S339.51,302.68,339.51,302.73Z"/><path class="cls-4" d="M328.88,295.33c0,.06-5.59.1-12.5.1s-12.5,0-12.5-.1,5.59-.1,12.5-.1S328.88,295.28,328.88,295.33Z"/><path class="cls-4" d="M342.71,299c0,.06-8.69.11-19.42.11s-19.41-.05-19.41-.11,8.69-.1,19.41-.1S342.71,299,342.71,299Z"/><path class="cls-4" d="M278.91,302.73c0,.06-2,.11-4.54.11a32.9,32.9,0,0,1-4.53-.11,34.1,34.1,0,0,1,4.53-.1C276.9,302.63,278.91,302.68,278.91,302.73Z"/><path class="cls-4" d="M351.6,302.73c0,.06-2,.11-4.54.11a32.9,32.9,0,0,1-4.53-.11,34.1,34.1,0,0,1,4.53-.1C349.59,302.63,351.6,302.68,351.6,302.73Z"/><rect class="cls-2" x="555.98" y="49.32" width="105.52" height="61.49"/><path class="cls-5" d="M661.86,111.17H555.61V49H661.86Z"/><path class="cls-4" d="M564.23,107.71c-.06,0-.1-12.57-.1-28.08s0-28.08.1-28.08.1,12.57.1,28.08S564.28,107.71,564.23,107.71Z"/><path class="cls-4" d="M562.06,53.92a15.75,15.75,0,0,1-3.5,0A15.75,15.75,0,0,1,562.06,53.92Z"/><path class="cls-4" d="M562.06,57.62a15.75,15.75,0,0,1-3.5,0A15.75,15.75,0,0,1,562.06,57.62Z"/><path class="cls-4" d="M562.06,61.32a15.75,15.75,0,0,1-3.5,0A15.75,15.75,0,0,1,562.06,61.32Z"/><path class="cls-4" d="M562.06,65a15.75,15.75,0,0,1-3.5,0A15.75,15.75,0,0,1,562.06,65Z"/><path class="cls-4" d="M562.06,68.72a15.75,15.75,0,0,1-3.5,0A15.75,15.75,0,0,1,562.06,68.72Z"/><path class="cls-4" d="M562.06,72.42a15.75,15.75,0,0,1-3.5,0A15.75,15.75,0,0,1,562.06,72.42Z"/><path class="cls-4" d="M562.06,76.12a15.75,15.75,0,0,1-3.5,0A15.75,15.75,0,0,1,562.06,76.12Z"/><path class="cls-4" d="M562.06,79.82a15.75,15.75,0,0,1-3.5,0A15.75,15.75,0,0,1,562.06,79.82Z"/><path class="cls-4" d="M562.06,83.52a15.75,15.75,0,0,1-3.5,0A15.75,15.75,0,0,1,562.06,83.52Z"/><path class="cls-4" d="M562.06,87.22a15.75,15.75,0,0,1-3.5,0A15.75,15.75,0,0,1,562.06,87.22Z"/><path class="cls-4" d="M562.06,90.92a13.67,13.67,0,0,1-3.5,0A15.75,15.75,0,0,1,562.06,90.92Z"/><path class="cls-4" d="M562.06,94.62a13.67,13.67,0,0,1-3.5,0A15.75,15.75,0,0,1,562.06,94.62Z"/><path class="cls-4" d="M562.06,98.33a15.75,15.75,0,0,1-3.5,0A13.67,13.67,0,0,1,562.06,98.33Z"/><path class="cls-4" d="M562.06,102a15.75,15.75,0,0,1-3.5,0A15.75,15.75,0,0,1,562.06,102Z"/><path class="cls-4" d="M562.06,105.73a15.75,15.75,0,0,1-3.5,0A15.75,15.75,0,0,1,562.06,105.73Z"/><path class="cls-4" d="M576.07,53.7c0,.06-2,.1-4.54.1a36.17,36.17,0,0,1-4.53-.1,36.28,36.28,0,0,1,4.53-.1C574.06,53.6,576.07,53.64,576.07,53.7Z"/><path class="cls-4" d="M576.07,105.73s-2,.1-4.54.1a36.17,36.17,0,0,1-4.53-.1,36.28,36.28,0,0,1,4.53-.1C574.06,105.63,576.07,105.67,576.07,105.73Z"/><path class="cls-4" d="M588.7,61.32s-3.8.1-8.49.1-8.48-.05-8.48-.1,3.8-.1,8.48-.1S588.7,61.26,588.7,61.32Z"/><path class="cls-4" d="M608.32,61.32s-3.8.1-8.49.1-8.48-.05-8.48-.1,3.8-.1,8.48-.1S608.32,61.26,608.32,61.32Z"/><path class="cls-4" d="M600.82,65c0,.06-5.6.1-12.5.1s-12.51,0-12.51-.1,5.6-.1,12.51-.1S600.82,65,600.82,65Z"/><path class="cls-4" d="M600.82,68.72c0,.06-5.6.1-12.5.1s-12.51,0-12.51-.1,5.6-.1,12.51-.1S600.82,68.66,600.82,68.72Z"/><path class="cls-4" d="M618,79.82c0,.06-5.59.1-12.5.1s-12.5,0-12.5-.1,5.59-.1,12.5-.1S618,79.77,618,79.82Z"/><path class="cls-4" d="M610.61,72.42c0,.06-5.6.1-12.51.1s-12.5,0-12.5-.1,5.59-.1,12.5-.1S610.61,72.37,610.61,72.42Z"/><path class="cls-4" d="M641.17,72.42c0,.06-5.6.1-12.51.1s-12.5,0-12.5-.1,5.6-.1,12.5-.1S641.17,72.37,641.17,72.42Z"/><path class="cls-4" d="M630.54,65c0,.06-5.6.1-12.51.1s-12.5,0-12.5-.1,5.6-.1,12.5-.1S630.54,65,630.54,65Z"/><path class="cls-4" d="M647.81,79.82c0,.06-5.6.1-12.5.1s-12.51,0-12.51-.1,5.6-.1,12.51-.1S647.81,79.77,647.81,79.82Z"/><path class="cls-4" d="M644.36,68.72c0,.06-8.69.1-19.41.1s-19.42,0-19.42-.1,8.69-.1,19.42-.1S644.36,68.66,644.36,68.72Z"/><path class="cls-4" d="M576.07,57.62c0,.05-2,.1-4.54.1a36.17,36.17,0,0,1-4.53-.1,36.28,36.28,0,0,1,4.53-.1C574.06,57.52,576.07,57.56,576.07,57.62Z"/><path class="cls-4" d="M576.07,102s-2,.1-4.54.1A36.17,36.17,0,0,1,567,102a36.28,36.28,0,0,1,4.53-.1C574.06,101.9,576.07,102,576.07,102Z"/><path class="cls-4" d="M580.56,72.42c0,.06-2,.1-4.53.1a36.5,36.5,0,0,1-4.54-.1,36.39,36.39,0,0,1,4.54-.1C578.57,72.32,580.56,72.37,580.56,72.42Z"/><path class="cls-4" d="M653.25,72.42c0,.06-2,.1-4.54.1a36.17,36.17,0,0,1-4.53-.1,36.28,36.28,0,0,1,4.53-.1C651.24,72.32,653.25,72.37,653.25,72.42Z"/><path class="cls-4" d="M588.7,87.2c0,.06-3.8.1-8.49.1s-8.48,0-8.48-.1,3.8-.1,8.48-.1S588.7,87.15,588.7,87.2Z"/><path class="cls-4" d="M608.32,87.2c0,.06-3.8.1-8.49.1s-8.48,0-8.48-.1,3.8-.1,8.48-.1S608.32,87.15,608.32,87.2Z"/><path class="cls-4" d="M600.82,90.9c0,.06-5.6.1-12.5.1s-12.51,0-12.51-.1,5.6-.1,12.51-.1S600.82,90.85,600.82,90.9Z"/><path class="cls-4" d="M600.82,94.6c0,.06-5.6.1-12.5.1s-12.51,0-12.51-.1,5.6-.1,12.51-.1S600.82,94.55,600.82,94.6Z"/><path class="cls-4" d="M610.61,98.3c0,.06-5.6.1-12.51.1s-12.5,0-12.5-.1,5.59-.1,12.5-.1S610.61,98.25,610.61,98.3Z"/><path class="cls-4" d="M641.17,98.3c0,.06-5.6.1-12.51.1s-12.5,0-12.5-.1,5.6-.1,12.5-.1S641.17,98.25,641.17,98.3Z"/><path class="cls-4" d="M630.54,90.9c0,.06-5.6.1-12.51.1s-12.5,0-12.5-.1,5.6-.1,12.5-.1S630.54,90.85,630.54,90.9Z"/><path class="cls-4" d="M644.36,94.6c0,.06-8.69.1-19.41.1s-19.42,0-19.42-.1,8.69-.1,19.42-.1S644.36,94.55,644.36,94.6Z"/><path class="cls-4" d="M580.56,98.3c0,.06-2,.1-4.53.1a36.5,36.5,0,0,1-4.54-.1,36.39,36.39,0,0,1,4.54-.1C578.57,98.2,580.56,98.25,580.56,98.3Z"/><path class="cls-4" d="M653.25,98.3c0,.06-2,.1-4.54.1a36.17,36.17,0,0,1-4.53-.1,36.28,36.28,0,0,1,4.53-.1C651.24,98.2,653.25,98.25,653.25,98.3Z"/><path class="cls-6" d="M664,174.92a5.08,5.08,0,0,1-.78.89L661,178.08c-1.93,1.91-4.62,4.51-7.61,7.36l-.06.06v-.38c3,2.8,5.72,5.35,7.66,7.21l2.27,2.23a5.45,5.45,0,0,1,.79.87,5.31,5.31,0,0,1-.92-.72l-2.39-2.1c-2-1.8-4.75-4.31-7.76-7.1l-.21-.19.2-.2.07-.06c3-2.85,5.72-5.41,7.71-7.25l2.38-2.15A5.16,5.16,0,0,1,664,174.92Z"/><path class="cls-6" d="M690,173.71a4.7,4.7,0,0,0,.78.89l2.22,2.27c1.93,1.91,4.62,4.51,7.61,7.36l.06.06v-.38c-3,2.8-5.72,5.35-7.66,7.21l-2.27,2.23a5,5,0,0,0-.79.87,5.31,5.31,0,0,0,.92-.72l2.39-2.1c2-1.8,4.75-4.31,7.76-7.1l.21-.19-.2-.2-.07-.06c-3-2.85-5.72-5.41-7.71-7.25l-2.38-2.15A6.08,6.08,0,0,0,690,173.71Z"/><path class="cls-7" d="M670,200.26c-.14,0,2.3-6.91,5.45-15.32s5.8-15.18,5.94-15.13-2.31,6.91-5.45,15.32S670.09,200.31,670,200.26Z"/><path class="cls-7" d="M713.66,214.94v-4.45c0-2.9,0-7.12-.06-12.5,0-10.75-.07-26.13-.11-44.67l.22.22H638.09l.27-.26V214.9l-.24-.24,54.61.12,15.48.06h.11l-15.43.07-54.76.11h-.23V152.91h75.94v.22c0,18.6-.09,34-.12,44.81v15.71A12.69,12.69,0,0,1,713.66,214.94Z"/><path class="cls-7" d="M714.25,162.46c0,.15-17.07.27-38.12.27s-38.13-.12-38.13-.27,17.07-.26,38.13-.26S714.25,162.32,714.25,162.46Z"/><path class="cls-7" d="M644.21,158a1,1,0,1,1-1-1A1,1,0,0,1,644.21,158Z"/><path class="cls-7" d="M647.92,158a1,1,0,1,1-1-1A1,1,0,0,1,647.92,158Z"/><path class="cls-7" d="M651.63,158a1,1,0,1,1-1-1A1,1,0,0,1,651.63,158Z"/></g><g id="freepik--character-2--inject-67"><path class="cls-8" d="M700.27,450.39l11.72-124A16.88,16.88,0,0,0,696.78,308c-.41,0-.83-.06-1.24-.07L565.1,305.29A16.87,16.87,0,0,0,548,320.8L538,450.34Z"/><path class="cls-9" d="M681.77,450.38a1.62,1.62,0,0,1,0-.44c0-.31.06-.74.1-1.29.1-1.16.25-2.83.43-5,.4-4.33,1-10.56,1.68-18.25,1.47-15.43,3.49-36.71,5.73-60.21,1.78-18.3,3.43-35.25,4.78-49.05h0v-2a8.46,8.46,0,0,0-.19-1.94,5.76,5.76,0,0,0-2-3A5.67,5.67,0,0,0,689,308l-3.43-.09-11.43-.28-7.31-.2-1.91-.07h1.92l7.31.09,11.43.18,3.43.06a6.09,6.09,0,0,1,5.63,4.52,8.45,8.45,0,0,1,.21,2l.06,2.05h0c-1.32,13.79-2.94,30.75-4.68,49-2.3,23.5-4.38,44.77-5.89,60.19-.77,7.69-1.4,13.91-1.84,18.24-.22,2.13-.4,3.8-.53,5-.06.55-.11,1-.15,1.29S681.77,450.38,681.77,450.38Z"/><path class="cls-10" d="M524.94,354.77c-1.75.05-14,22.14-22.93,38.8a31.9,31.9,0,0,1-30.36,16.71h0a31.94,31.94,0,0,1-29.36-27.12L434.76,297l30.16-7.46L477.24,357l7.56-21.45Z"/><path class="cls-10" d="M465.19,295.78l-1-15.12s-4.27-33.94-4.27-37.25c0-3.83-1.83-4.75-3.24-4.66-2.2.15-3.76,2.85-3.87,6.14,0,1.13.11,19.07.11,19.07a41.47,41.47,0,0,0-3.48-4.84c-2.65-3.36-8.88-5.28-15.27-5.08s-8.16.83-8.2,3.32a3.18,3.18,0,0,0,1.26,2.41,6.23,6.23,0,0,0,4.21,1.45c10.24-.18,13,5.29,13,5.29l.13,2s-6.22-4.45-11.18-2.57a6,6,0,0,0-2,1.22,8,8,0,0,0-6.94,11.95c.66,1.18,1.89,2.28,3.22,2a4.28,4.28,0,0,0,1.81-1.1,6,6,0,0,1,.91-.68l1.15,5.49s3.23,12.2,4,17.67"/><path class="cls-10" d="M462.25,294.55c-1.88.51-3.81-.87-4.82-2.53s-1.44-3.62-2.33-5.35c-2.67-5.18-9.12-7.66-11.53-13-.34-.74-.52-1.76.13-2.24s1.45-.1,2.11.27l16.88,9.35"/><path class="cls-11" d="M462.69,281.09a7.08,7.08,0,0,0-1.72-1.2c-1.14-.71-2.82-1.7-4.89-2.91l-7.33-4.19-2.13-1.2c-.7-.33-1.47-1.07-2.78-.79a1.63,1.63,0,0,0-1.11,1.45,3.31,3.31,0,0,0,.28,1.55,12.85,12.85,0,0,0,1.45,2.45c2.34,3,5.36,4.94,7.54,7.16a14.33,14.33,0,0,1,2.67,3.43c.64,1.2,1.05,2.45,1.54,3.57a6.84,6.84,0,0,0,3.91,4.22,2.52,2.52,0,0,0,2.13-.08,5.67,5.67,0,0,1-2-.33,6.55,6.55,0,0,1-3.34-4.1,37.82,37.82,0,0,0-1.45-3.7,14.86,14.86,0,0,0-2.76-3.73c-2.24-2.33-5.23-4.29-7.38-7.11a11.67,11.67,0,0,1-1.32-2.2c-.32-.73-.28-1.48.15-1.55a3.92,3.92,0,0,1,1.94.68l2.15,1.16,7.44,4c2.13,1.12,3.86,2,5.06,2.6A8.15,8.15,0,0,0,462.69,281.09Z"/><path class="cls-11" d="M444.81,268.58a8,8,0,0,0-1.17-3.45,6.16,6.16,0,0,0-3.12-2.26,16,16,0,0,0-4.85-.7,26,26,0,0,1-5.06-.44,8,8,0,0,1-3.76-1.88,3.11,3.11,0,0,1-1-2.65,2,2,0,0,1,.33-1c.07,0-.05.37-.06,1a3,3,0,0,0,1.08,2.27,8.13,8.13,0,0,0,3.56,1.61,27.26,27.26,0,0,0,4.94.37,15.46,15.46,0,0,1,5.05.79,6.39,6.39,0,0,1,3.31,2.61,5.6,5.6,0,0,1,.87,2.69C445,268.23,444.85,268.59,444.81,268.58Z"/><path class="cls-11" d="M452.87,243.62a20.28,20.28,0,0,1,.05,3.57c0,2.44-.05,5.36-.09,8.58s0,6.14,0,8.58a21.29,21.29,0,0,1-.08,3.57,16.26,16.26,0,0,1-.43-3.55c-.15-2.2-.25-5.24-.24-8.6s.14-6.41.3-8.6A17,17,0,0,1,452.87,243.62Z"/><path class="cls-11" d="M440.76,272.62a4.54,4.54,0,0,1-1-.4,3.27,3.27,0,0,0-2.75-.13,1.76,1.76,0,0,0-.93,1.49,9,9,0,0,0,.17,2.31,4,4,0,0,1-.43,2.81,3.41,3.41,0,0,1-2.73,1.42,3.84,3.84,0,0,1-2.81-1.22,4.8,4.8,0,0,1-1.32-2.49,16,16,0,0,1,.07-4.59,9.54,9.54,0,0,1,.91-2.95c.37-.64.71-.9.73-.87a9.18,9.18,0,0,1-.48,1,11.1,11.1,0,0,0-.66,2.9,16.63,16.63,0,0,0,.07,4.4,3.85,3.85,0,0,0,3.47,3.12,2.72,2.72,0,0,0,2.17-1.1,3.35,3.35,0,0,0,.36-2.34,9.37,9.37,0,0,1-.1-2.48,2.33,2.33,0,0,1,1.29-1.86,3.48,3.48,0,0,1,3.09.34C440.48,272.33,440.78,272.58,440.76,272.62Z"/><path class="cls-11" d="M430.54,278.36a1.6,1.6,0,0,1-.1,1,3.14,3.14,0,0,1-2.08,1.84,4.15,4.15,0,0,1-3.93-1.21,6.74,6.74,0,0,1-1.75-4.72,8.22,8.22,0,0,1,1.53-4.79,7.93,7.93,0,0,1,3.2-2.56,7.3,7.3,0,0,1,2.68-.63c.65,0,1,0,1,.1a12.27,12.27,0,0,0-3.46,1,7.64,7.64,0,0,0-4.24,6.9,6.31,6.31,0,0,0,1.51,4.26,3.66,3.66,0,0,0,3.34,1.18,3,3,0,0,0,1.95-1.46C430.47,278.72,430.48,278.35,430.54,278.36Z"/><path class="cls-11" d="M442.88,290.35a2.81,2.81,0,0,1,1.72,0,6.72,6.72,0,0,1,3.73,2.26l-.6.17a19.51,19.51,0,0,1,.39-2.39c1-4.61,3.58-7.62,3.7-7.48a35.68,35.68,0,0,0-3,7.64c-.18.8-.31,1.58-.41,2.31l-.1.8-.5-.62a7,7,0,0,0-3.32-2.28C443.51,290.46,442.88,290.44,442.88,290.35Z"/><path class="cls-11" d="M442.55,259.83c.17.08-.52,1.37-2.1,2s-3,.32-2.93.14,1.29-.18,2.65-.79S442.39,259.7,442.55,259.83Z"/><path class="cls-12" d="M633.93,367.76l52.82-13s-3.36-8.15-12.67-35.78c-8.6-25.53-16-34.28-16-34.28s-27-14.88-42.82-23.49L604.13,249.5v1.18l-10.3,4.53L577.5,262.4l-15.68-5.76-6.57-2.41-2.32,4.57-28,7.7s-20,7.26-32.82,36.61c-15.84,36.17-17,42.47-17,42.47l41.37,24-6.87,80.78,126.54.08-2.5-61.9Z"/><path class="cls-9" d="M626.66,304.06a4.71,4.71,0,0,1,.14-1.3,16.88,16.88,0,0,1,1-3.43,21.65,21.65,0,0,1,7.2-9.21,26.13,26.13,0,0,1,14.36-4.87,5.65,5.65,0,0,1,1.3,0c0,.1-1.86.1-4.78.68a26.82,26.82,0,0,0-10.57,4.56,22.34,22.34,0,0,0-7.17,8.94A32.4,32.4,0,0,0,626.66,304.06Z"/><path class="cls-9" d="M686.75,354.77l-.27.09-.82.22-3.13.8L671,358.74,632.82,368l-.23.05-.27.07-.05-.27c-2.55-15.06-4.86-28.67-6.53-38.56-.81-4.91-1.46-8.89-1.92-11.69-.21-1.35-.38-2.42-.5-3.18-.05-.34-.08-.62-.12-.83a1.41,1.41,0,0,1,0-.29.9.9,0,0,1,.08.28,6.74,6.74,0,0,0,.16.82c.15.76.34,1.82.6,3.16.49,2.8,1.2,6.77,2.08,11.66,1.71,9.89,4.07,23.49,6.68,38.54l-.31-.21.22-.06,38.2-9.07,11.59-2.69,3.16-.71.82-.17A.92.92,0,0,1,686.75,354.77Z"/><path class="cls-9" d="M552.93,258.8a3.19,3.19,0,0,1,.19.81c.1.61.23,1.37.39,2.29v-.07A82.52,82.52,0,0,0,565,273.38l1.56,1.23c.5.4,1.06.77,1.48.56s.65-.89,1-1.4l.9-1.56c1.19-2,2.33-3.8,3.32-5.27s1.85-2.62,2.47-3.39c.31-.39.56-.68.74-.87s.27-.29.29-.28a13.48,13.48,0,0,1-.86,1.27c-.57.81-1.38,2-2.33,3.48s-2,3.28-3.22,5.3c-.28.51-.58,1-.88,1.56l-.44.82a1.8,1.8,0,0,1-.73.79,1.29,1.29,0,0,1-1.15,0,4.14,4.14,0,0,1-.86-.57c-.53-.4-1-.81-1.58-1.24A69.93,69.93,0,0,1,553.26,262h0c-.1-.93-.19-1.7-.26-2.31A3.31,3.31,0,0,1,552.93,258.8Z"/><path class="cls-9" d="M613.5,260.51a2,2,0,0,1-.41.28l-1.24.71-4.55,2.58c-3.84,2.2-9.1,5.3-14.78,8.93-2.44,1.57-4.77,3.1-6.88,4.52l-.22.15-.13-.23c-2.35-4.11-4.28-7.68-5.55-10.25-.64-1.29-1.12-2.32-1.41-3.05a6.35,6.35,0,0,1-.41-1.13,7.21,7.21,0,0,1,.55,1.07c.34.7.87,1.71,1.54,3,1.35,2.53,3.32,6.06,5.7,10.15l-.34-.08c2.1-1.44,4.42-3,6.87-4.56,5.69-3.63,11-6.69,14.88-8.81,1.94-1.06,3.53-1.88,4.64-2.44l1.28-.63A1.92,1.92,0,0,1,613.5,260.51Z"/><path class="cls-9" d="M584.61,318.69a3.05,3.05,0,0,1-.74,0l-2.11-.19-7.73-.83h-.18v-.19c.19-5.16.44-11.89.71-19.25.36-8.22.69-15.66.93-21.12.14-2.65.26-4.82.34-6.4q.07-1.06.12-1.74a3.09,3.09,0,0,1,.08-.61,2.08,2.08,0,0,1,0,.61v1.75c0,1.58-.11,3.75-.18,6.4-.2,5.47-.47,12.91-.78,21.13-.32,7.36-.61,14.08-.84,19.25l-.17-.2,7.7,1,2.1.3A3.2,3.2,0,0,1,584.61,318.69Z"/><path class="cls-9" d="M584,286.71h.22a2.17,2.17,0,0,1,.6.22,3.73,3.73,0,0,1,1.57,1.74,4,4,0,0,1,0,3.48,3.3,3.3,0,0,1-1.54,1.46,4.24,4.24,0,0,1-4.35-.49,3.22,3.22,0,0,1-1.18-1.77A4,4,0,0,1,580,288a3.75,3.75,0,0,1,1.92-1.35,2.72,2.72,0,0,1,.63-.08.45.45,0,0,1,.23,0c0,.06-.31.07-.8.26a3.81,3.81,0,0,0-1.68,1.37,3.72,3.72,0,0,0-.6,3,3.51,3.51,0,0,0,6.19.7,3.73,3.73,0,0,0,.1-3.1,3.82,3.82,0,0,0-1.34-1.71C584.23,286.84,583.94,286.77,584,286.71Z"/><path class="cls-9" d="M583.26,303.63h.22a2.17,2.17,0,0,1,.6.22,3.73,3.73,0,0,1,1.57,1.74,4,4,0,0,1,0,3.48,3.3,3.3,0,0,1-1.54,1.46,4.23,4.23,0,0,1-4.35-.49,3.22,3.22,0,0,1-1.18-1.77,4,4,0,0,1,.76-3.39,3.73,3.73,0,0,1,1.92-1.34,2.23,2.23,0,0,1,.63-.09h.23c0,.06-.31.07-.8.26a3.88,3.88,0,0,0-2.28,4.37,3.51,3.51,0,0,0,6.19.7,3.73,3.73,0,0,0,.1-3.1A3.82,3.82,0,0,0,584,304C583.54,303.76,583.24,303.69,583.26,303.63Z"/><g class="cls-13"><path d="M577.91,262.67c-.19.38,2.58,11.42,4.61,18.62a4.44,4.44,0,0,0,7.44,1.9l20.89-21.27L585.5,277.33Z"/></g><g class="cls-13"><path d="M554.32,263.09s4.85,16.87,14.21,18.28c0,0,3,.11,3.73-2.33s4.48-16.64,4.48-16.64l-8.66,13A41.45,41.45,0,0,1,554.32,263.09Z"/></g><path class="cls-10" d="M604.12,250.68l.15-66.83A35.74,35.74,0,0,0,568.65,148h-1.54a37.43,37.43,0,0,0-34.32,37.41c.05,17.07.32,35.59,1.18,44.63,1.83,19.23,21.33,20.63,21.33,20.63v3.52l22.25,8.17Z"/><path class="cls-11" d="M555.25,250.43s12.24,0,24.5-9.21c0,0-4.79,14.35-24.14,14.2Z"/><path class="cls-9" d="M539.27,197.13a2.76,2.76,0,0,0,2.88,2.56,2.65,2.65,0,0,0,2.63-2.67V197a2.76,2.76,0,0,0-2.88-2.55,2.63,2.63,0,0,0-2.63,2.65Z"/><path class="cls-9" d="M537.7,193.16c.37.33,2.33-1.38,5.29-1.62s5.25,1.06,5.54.67c.14-.17-.26-.79-1.26-1.4a7.51,7.51,0,0,0-4.47-1,7.24,7.24,0,0,0-4.17,1.74C537.78,192.34,537.52,193,537.7,193.16Z"/><path class="cls-9" d="M567.41,195.23a2.76,2.76,0,0,0,2.88,2.56,2.65,2.65,0,0,0,2.63-2.67v-.05a2.76,2.76,0,0,0-2.88-2.55,2.63,2.63,0,0,0-2.63,2.65Z"/><path class="cls-9" d="M566.82,191.31c.37.33,2.33-1.39,5.28-1.62s5.25,1.06,5.54.67c.15-.17-.25-.79-1.26-1.4a7.51,7.51,0,0,0-4.47-1,7.2,7.2,0,0,0-4.16,1.73C566.9,190.49,566.64,191.16,566.82,191.31Z"/><path class="cls-9" d="M557.9,214.13c0-.17-1.86-.34-4.87-.47-.76,0-1.49-.11-1.66-.61a3.81,3.81,0,0,1,.32-2.28c.56-1.89,1.14-3.87,1.76-5.94,2.42-8.44,4.11-15.36,3.77-15.46s-2.59,6.68-5,15.12q-.87,3.12-1.66,6a4.42,4.42,0,0,0-.15,3,1.91,1.91,0,0,0,1.34,1,5.09,5.09,0,0,0,1.29.07C556,214.44,557.91,214.3,557.9,214.13Z"/><path class="cls-9" d="M566.78,215.45c-.49,0-.23,3.22-2.79,5.73s-6,2.44-6,2.89c0,.2.81.56,2.26.48a8.1,8.1,0,0,0,5-2.23,7,7,0,0,0,2.13-4.79C567.42,216.18,567,215.42,566.78,215.45Z"/><path class="cls-9" d="M565.1,179.78c.36.78,3.28.15,6.78.28s6.39.85,6.79.09c.18-.36-.37-1.08-1.57-1.76a11.24,11.24,0,0,0-5.14-1.34,11.48,11.48,0,0,0-5.2,1C565.53,178.72,564.94,179.41,565.1,179.78Z"/><path class="cls-9" d="M538.08,184.51c.58.63,2.56-.24,5-.47s4.56.08,5-.67c.18-.36-.2-1-1.16-1.56a7.24,7.24,0,0,0-8,.92C538.05,183.49,537.83,184.2,538.08,184.51Z"/><path class="cls-9" d="M581.63,164.48l.11.07a15.15,15.15,0,0,1,6.43,9.32,1.59,1.59,0,0,0,.09.39c1.21,5.43,1.53,11,2.79,16.44s1,9.55,6.45,10.77a7.24,7.24,0,0,0,7.56-3.07,4.66,4.66,0,0,0,.47-2.57c-.07-13.34,2.62-18.52,1.44-32.38a11.73,11.73,0,0,0-5.63-9.11c-3.08-1.84-6.8-3.7-9.9-1.91s-6.77,8.18-9.06,10.95"/><path class="cls-10" d="M598.5,193.09c.32-.16,12.9-5,13.57,8.19s-12.72,11.14-12.76,10.77S598.5,193.09,598.5,193.09Z"/><path class="cls-11" d="M603.09,206.84a4.59,4.59,0,0,0,.63.31,2.28,2.28,0,0,0,1.72-.05c1.37-.58,2.43-2.85,2.38-5.24a7.65,7.65,0,0,0-.81-3.25,2.67,2.67,0,0,0-1.82-1.68,1.18,1.18,0,0,0-1.33.7c-.15.38-.06.64-.13.66s-.29-.2-.21-.75a1.53,1.53,0,0,1,.47-.86,1.79,1.79,0,0,1,1.26-.4,3.23,3.23,0,0,1,2.5,1.93,7.73,7.73,0,0,1,1,3.63c0,2.67-1.19,5.22-3.07,5.87a2.47,2.47,0,0,1-2.12-.24C603.13,207.16,603,206.87,603.09,206.84Z"/><path class="cls-9" d="M592.06,154.43c2.8-5.53-6.7-12.35-13.36-13.86s-15,2.36-21.24,5c-4,1.69-7.88,3.91-12.18,4.09-2.89.12-5.72-.7-8.52-1.43a21.36,21.36,0,0,0-8.55-1c-2.86.44-5.69,2.21-6.57,5s1,6.28,3.89,6.44c-3.81-1.7-8.86,1.36-9.11,5.52s4.39,7.82,8.37,6.59c-2-1.26-4.66,1.32-4.23,3.64s2.68,3.84,4.91,4.6c5.68,2,12,.66,17.54-1.72s10.54-5.8,16-8.31,14.58-7,20.4-5.46c4.28,1.12,7.59,5.89,9.85,4.59a8.09,8.09,0,0,0,3.68-6.26,23.58,23.58,0,0,0-.88-7.47"/><path class="cls-8" d="M523.91,158.47c.1-.07.76.92,2.3,2.34a18.21,18.21,0,0,0,7.7,4.1,16.71,16.71,0,0,0,12.5-1.54c4.31-2.38,7.81-6.71,11.9-10.85s9-7.43,14.2-8.33,10.07.58,13,3.32a11.49,11.49,0,0,1,3.68,8.25,8.94,8.94,0,0,1-.36,2.47c-.2.54-.32.8-.37.79a20.68,20.68,0,0,0,.23-3.24,11.35,11.35,0,0,0-3.8-7.59c-2.73-2.43-7.32-3.74-12.11-2.82s-9.51,4-13.5,8.07-7.62,8.5-12.24,11a17.49,17.49,0,0,1-13.33,1.38,17.69,17.69,0,0,1-7.81-4.62,12.5,12.5,0,0,1-1.54-1.94C524,158.76,523.87,158.5,523.91,158.47Z"/><path class="cls-8" d="M601.8,192.24a3.41,3.41,0,0,1-1.18-1.31,8.88,8.88,0,0,1-1-4.72c-.06-4.26,3.31-9.12,3.3-15a13.22,13.22,0,0,0-2.1-7.73,10.11,10.11,0,0,0-5.24-3.82,8.48,8.48,0,0,0-4.44-.23c-1,.25-1.59.54-1.65.44s.43-.5,1.5-.93a8.24,8.24,0,0,1,4.84-.17,10.63,10.63,0,0,1,6,4,14,14,0,0,1,2.43,8.45,23.93,23.93,0,0,1-1.85,8.5,24.86,24.86,0,0,0-1.84,6.55A10.18,10.18,0,0,0,601.8,192.24Z"/><path class="cls-10" d="M682.13,356l18.65,44.59a28.34,28.34,0,0,1-1.64,25.17h0a28.34,28.34,0,0,1-28.22,13.85l-65.44-6.35,1.21-25.86,48.39-7.62-13.42-33.93Z"/><path class="cls-10" d="M607.59,407.61s-10.56-2.33-15.09-3.26c-1.47-.31-2.76-1.13-4.21-1.5-7.08-1.84-15.75-6.41-17.72-8.33-3.42-3.35-5.94,1.81-2.53,6a24.22,24.22,0,0,0,6,5.69L559.59,410a3.1,3.1,0,0,0-1.82,1.33L546.61,429a3.51,3.51,0,0,0,.41,4.65,1.75,1.75,0,0,0,2.37.18l-1.44,2.4c-2.37,4,3.45,7.86,6,4a.71.71,0,0,0,.1-.14l2.79,3.78s1.33,3.69,5.6,1.32c3.54-2,15.42-10.72,15.42-10.72s33.55.76,35.23-4.19Z"/><path class="cls-11" d="M554,440.23c.17.08,1.12-1.6,2.81-4.21s4.24-6.15,6.72-10.17c1.32-1.9,2.75-3.79,4-5.27a3.65,3.65,0,0,1,2.3-1.06l2.53-.37c3.09-.47,5-.84,5-1s-2-.1-5.08.15l-2.55.22a4.67,4.67,0,0,0-3,1.26,57.77,57.77,0,0,0-4.21,5.39c-2.53,4.1-4.91,7.64-6.45,10.41S553.87,440.17,554,440.23Z"/><path class="cls-11" d="M549.39,433.79c.4.28,4.17-6.25,9.57-13.64,1.35-1.83,2.62-3.73,4.19-4.49a35.8,35.8,0,0,1,4.92-1.71,20.3,20.3,0,0,1,3.44-.67,8.56,8.56,0,0,0,1.3-.07c0-.07-.42-.32-1.3-.4a13.09,13.09,0,0,0-3.64.3,28.47,28.47,0,0,0-5.18,1.52c-2.1,1-3.33,3-4.71,4.79a91.75,91.75,0,0,0-6.41,10A20.27,20.27,0,0,0,549.39,433.79Z"/><path class="cls-11" d="M580.45,426.3c0-.16-1.73-.12-4.47.09l-2.25.19a7.09,7.09,0,0,0-2.69.57,6.84,6.84,0,0,0-2.31,2l-2,2.31c-5.54,6.34-9.82,11.65-9.56,11.86s4.94-4.73,10.46-11l2-2.32a6,6,0,0,1,1.94-1.77,6.59,6.59,0,0,1,2.31-.57l2.23-.34C578.8,426.82,580.47,426.47,580.45,426.3Z"/><path class="cls-11" d="M588.83,405.63c0-.5-4.64-.73-10.26-.12s-10.13,1.8-10,2.17,4.55-.44,10.16-1l7.16-.71A14.57,14.57,0,0,0,588.83,405.63Z"/></g><g id="freepik--character-1--inject-67"><path class="cls-8" d="M48.9,450.39l-11.72-124A16.88,16.88,0,0,1,52.39,308c.41,0,.83-.06,1.24-.07l130.44-2.63a16.88,16.88,0,0,1,17.15,15.51l10,129.54Z"/><path class="cls-9" d="M67.4,450.36a3.21,3.21,0,0,1-.07-.43,12.85,12.85,0,0,0-.15-1.29c-.12-1.16-.3-2.83-.53-5-.43-4.33-1.06-10.55-1.84-18.23-1.51-15.43-3.58-36.7-5.88-60.19-1.75-18.3-3.37-35.25-4.68-49h0v-2.05a9,9,0,0,1,.22-2,6.07,6.07,0,0,1,5.62-4.52l3.44-.06L75,307.37l7.31-.09h1.92l-1.91.07-7.31.2-11.43.28-3.43.09a5.67,5.67,0,0,0-3.25,1.21,5.76,5.76,0,0,0-2,3,8.46,8.46,0,0,0-.19,1.94v2h0c1.34,13.79,3,30.74,4.78,49,2.24,23.5,4.26,44.77,5.73,60.2.71,7.69,1.28,13.92,1.68,18.25.18,2.14.33,3.81.43,5q.06.83.09,1.29A3.37,3.37,0,0,1,67.4,450.36Z"/><path class="cls-9" d="M132.39,199.6c1.79-3.8-.12-8.66-3.63-10.95s-8.16-2.32-12.12-.93a19.67,19.67,0,0,0-12.83,16.77,14.37,14.37,0,0,0-7.7,5.18c-5.48,6.93-4.64,17.87,1.46,24.27s16.54,7.89,24.45,3.94,13-12.77,12.9-21.61"/><path class="cls-12" d="M138.17,203.6a3.68,3.68,0,0,0-1.73-4,5.69,5.69,0,0,0-4.6-.34,13,13,0,0,0-4.07,2.4,20.23,20.23,0,0,0-4.73,5.08,10.46,10.46,0,0,0-1.62,6.65,7.09,7.09,0,0,0,3.78,5.51,5.4,5.4,0,0,0,6.34-1.27"/><path class="cls-9" d="M144,182.59c-.14-4.33,3.85-7.69,7.87-9.3s8.5-2.22,12.08-4.66c3.17-2.15,5.3-5.5,8-8.25a26.67,26.67,0,0,1,44.9,12c1.57,6.16.55,13.46-4.29,17.58-5.62,4.78-14,3.76-21.22,2.31s-15.43-2.86-21.44,1.41c-3.63,2.58-5.7,6.75-7.91,10.61s-5,7.82-9.18,9.28-9.92-1-10.11-5.45"/><path class="cls-9" d="M144.29,185c.5,3.63-2.11,6.89-4.72,9.47s-5.54,5.3-6,8.94c-.52,4.24,2.6,8.4,1.72,12.59-.56,2.65-2.61,4.71-3.85,7.12a15.1,15.1,0,0,0-.72,11.13c1.09,3.65,2.85,11.81,5.4,14.63,7.06,7.83,18.28,14.55,28.56,16.87s20.95,2.27,31.47,1.58c8.61-.57,18.51-.22,25.63-12.1,3.69-6.15,5.49-14.32,7.44-21.22,1.67-5.95,3.11-12.32,1.32-18.23-1-3.44-3.14-6.49-4.17-9.94-1.29-4.31-.85-8.92-1.38-13.39a30.72,30.72,0,0,0-43.82-24.06"/><path class="cls-14" d="M220.91,199.49c-.86-12.35-9.15-27.46-21.45-26.07l-38.39,10a7.24,7.24,0,0,0-6.43,7.39l4.74,92.7-.26.05s8.88,26.11,34.25,18c5-1.61,7.31-7.13,8.28-12.8h.26v-1.94A60.1,60.1,0,0,0,202,274.1h0V263.62c0,.07,15.77-2.73,18.91-23.35C222.5,230,221.87,213.22,220.91,199.49Z"/><path class="cls-9" d="M215.73,213.54a2.63,2.63,0,0,1-2.53,2.68,2.51,2.51,0,0,1-2.72-2.28.19.19,0,0,1,0-.08,2.63,2.63,0,0,1,2.52-2.68,2.52,2.52,0,0,1,2.73,2.29A.15.15,0,0,1,215.73,213.54Z"/><path class="cls-9" d="M217.33,208.26c-.32.34-2.34-1.13-5.18-1.1s-4.92,1.46-5.23,1.12c-.15-.15.18-.78,1.08-1.45a7.31,7.31,0,0,1,4.19-1.32,7,7,0,0,1,4.12,1.3C217.19,207.48,217.49,208.1,217.33,208.26Z"/><path class="cls-9" d="M188.58,213.87a2.64,2.64,0,0,1-2.53,2.68,2.51,2.51,0,0,1-2.72-2.28.19.19,0,0,1,0-.08,2.64,2.64,0,0,1,2.52-2.69,2.52,2.52,0,0,1,2.73,2.29A.19.19,0,0,1,188.58,213.87Z"/><path class="cls-9" d="M189.39,209c-.33.34-2.34-1.12-5.18-1.1s-4.92,1.47-5.23,1.12c-.15-.15.18-.78,1.08-1.45a7.27,7.27,0,0,1,4.18-1.32,6.88,6.88,0,0,1,4.13,1.31C189.25,208.2,189.55,208.82,189.39,209Z"/><path class="cls-9" d="M199.85,230c0-.16,1.75-.48,4.61-.87.73-.08,1.41-.22,1.53-.72a3.68,3.68,0,0,0-.5-2.15l-2.18-5.51c-3-7.85-5.24-14.31-4.92-14.43s3,6.15,6.07,14l2.09,5.55a4.24,4.24,0,0,1,.4,2.84,1.81,1.81,0,0,1-1.19,1.07,4.26,4.26,0,0,1-1.23.18C201.65,230.13,199.86,230.15,199.85,230Z"/><path class="cls-15" d="M202,263.62a52.43,52.43,0,0,1-27.63-7.17s6.78,14.1,27.39,12Z"/><path class="cls-15" d="M198.7,236.85a5.1,5.1,0,0,0-4.61-1.87,4.65,4.65,0,0,0-3.22,1.75,3,3,0,0,0-.2,3.39,3.44,3.44,0,0,0,3.73.92,10.91,10.91,0,0,0,3.62-2.19,3.12,3.12,0,0,0,.81-.85,1,1,0,0,0,0-1.06"/><path class="cls-9" d="M191.5,232c.46,0,.49,3.06,3.14,5.23s5.94,1.81,6,2.24c0,.2-.73.61-2.12.65a7.63,7.63,0,0,1-5-1.69,6.74,6.74,0,0,1-2.44-4.39C191,232.76,191.29,232,191.5,232Z"/><path class="cls-9" d="M190.63,204c-.27.78-3.11.43-6.44.85s-6,1.36-6.48.67c-.2-.34.27-1.07,1.35-1.82a11.37,11.37,0,0,1,9.84-1.16C190.13,203,190.75,203.62,190.63,204Z"/><path class="cls-9" d="M216.23,200c-.5.65-2.46,0-4.81,0s-4.35.47-4.81-.21c-.21-.32.1-1,1-1.59a7,7,0,0,1,7.75.19C216.17,199.06,216.45,199.72,216.23,200Z"/><path class="cls-9" d="M147,251.24a18.29,18.29,0,0,0,21.48-14.41,18.1,18.1,0,0,0,.19-5.92c-.67-5-3.42-10.19-1.69-15,2.29-6.34,11.16-8.33,13.49-14.66,1.35-3.67.1-8,1.63-11.57,1.45-3.39,5-5.36,8.46-6.62s7.17-2.16,10.07-4.43,4.69-6.55,2.8-9.71a194.88,194.88,0,0,0-45,11.14c-3.36,1.27-6.88,2.8-8.86,5.79-2.09,3.18-2,7.26-1.77,11q1.42,27.75,2.84,55.48"/><path class="cls-8" d="M148.32,258.32a1.42,1.42,0,0,1-.33-.21l-.92-.7c-.8-.62-2-1.54-3.43-2.81a36.4,36.4,0,0,1-4.86-5.07,19,19,0,0,1-3.89-8.47,12.91,12.91,0,0,1,2.6-10.85,42.47,42.47,0,0,1,4.78-4.11A11.17,11.17,0,0,0,146,221c1.51-4.2.81-9.06,1.37-14a27.93,27.93,0,0,1,5.78-14.23,19.34,19.34,0,0,1,6.08-5,38,38,0,0,1,7.2-2.46,16.89,16.89,0,0,0,6.31-3.15A24.9,24.9,0,0,0,177.3,177c2.57-3.69,4.47-7.61,6.92-10.89a23.15,23.15,0,0,1,4-4.33,15.23,15.23,0,0,1,4.8-2.64,10.24,10.24,0,0,1,9.15.87,8.4,8.4,0,0,1,3.28,6.15,6.17,6.17,0,0,1-1.22,4.25,3.55,3.55,0,0,1-.84.8c-.21.16-.32.24-.32.22a1.47,1.47,0,0,1,.26-.29,4.6,4.6,0,0,0,.75-.84,6.07,6.07,0,0,0,1-4.12,8.13,8.13,0,0,0-3.22-5.76,9.76,9.76,0,0,0-8.66-.68,15.14,15.14,0,0,0-4.56,2.58,22.92,22.92,0,0,0-3.88,4.23c-2.37,3.23-4.23,7.14-6.83,10.93a25.41,25.41,0,0,1-4.71,5.27,17.68,17.68,0,0,1-6.6,3.33,36.89,36.89,0,0,0-7,2.41,18.17,18.17,0,0,0-5.8,4.8,27.11,27.11,0,0,0-5.6,13.75c-.57,4.81.14,9.74-1.46,14.22a12,12,0,0,1-4,5.45,40.9,40.9,0,0,0-4.72,4A12.29,12.29,0,0,0,135.52,241a18.58,18.58,0,0,0,3.66,8.26,38,38,0,0,0,4.7,5.12c1.41,1.3,2.54,2.27,3.31,2.93A8.32,8.32,0,0,1,148.32,258.32Z"/><path class="cls-9" d="M98,220.05a1.92,1.92,0,0,0-.5.29,7.61,7.61,0,0,0-1.2,1.14,9.55,9.55,0,0,0-2.12,5.67,15.66,15.66,0,0,0,2.55,8.61,20.25,20.25,0,0,0,8,7.55,16.2,16.2,0,0,0,10.88,1.38,14.06,14.06,0,0,0,4.47-1.91,13.68,13.68,0,0,0,3.08-2.9,12.14,12.14,0,0,0,2.42-5.56,9.14,9.14,0,0,0,.1-1.65,1.85,1.85,0,0,0-.06-.57c-.07,0,0,.79-.3,2.18a12.76,12.76,0,0,1-9.85,9.8A15.7,15.7,0,0,1,105,242.71a20,20,0,0,1-7.77-7.28,15.43,15.43,0,0,1-2.6-8.27,9.59,9.59,0,0,1,1.84-5.51A17.31,17.31,0,0,1,98,220.05Z"/><path class="cls-9" d="M149.68,225.56a3.6,3.6,0,0,0,.69.32c.46.18,1.15.44,2,.72a24.59,24.59,0,0,0,7.9,1.15,15.94,15.94,0,0,0,10.85-4.46,12.9,12.9,0,0,0,3.34-6.2,48,48,0,0,1,2-7.12,15.11,15.11,0,0,1,4.79-5.44,42.77,42.77,0,0,1,5.94-3.52c4-2,7.56-4,9.77-6.67a11.8,11.8,0,0,0,3-7.36,7.89,7.89,0,0,0-.31-2.16,3,3,0,0,0-.28-.7,12,12,0,0,1,.32,2.86,11.74,11.74,0,0,1-3.06,7.05c-2.18,2.52-5.71,4.47-9.68,6.43a41.7,41.7,0,0,0-6.06,3.54,15.46,15.46,0,0,0-5,5.68c-1.13,2.4-1.44,4.94-2,7.25a12.49,12.49,0,0,1-3.15,5.93,15.55,15.55,0,0,1-10.42,4.41,25.73,25.73,0,0,1-7.81-.93C150.68,225.87,149.7,225.5,149.68,225.56Z"/><polygon class="cls-9" points="212.55 286.28 200.45 277.12 154.88 274.2 153.05 280.31 167.87 372.82 157.98 450.36 221.55 450.36 212.55 286.28"/><path class="cls-9" d="M202.69,288.15l1.41-13.23a4.18,4.18,0,0,0-3.72-4.61h-.07l-42-3.79a2,2,0,0,0-2.16,1.83v.08l-.47,15.74,12.15,20.61,12.49,4h15.27l8.78-9.38Z"/><path class="cls-8" d="M161.92,279.11l1.67-.17a30.43,30.43,0,0,1,4.58-.08,44.71,44.71,0,0,1,6.71,1c2.51.53,5.23,1.26,8.12,2a52.57,52.57,0,0,0,8.26,1.48,21.55,21.55,0,0,0,6.84-.47,14.46,14.46,0,0,0,4.28-1.77,12.3,12.3,0,0,0,1-.74c.22-.19.33-.29.32-.31s-.51.34-1.45.87a15.68,15.68,0,0,1-4.25,1.59,21.37,21.37,0,0,1-6.72.34,58.23,58.23,0,0,1-8.18-1.49c-2.88-.7-5.61-1.43-8.14-1.93a41,41,0,0,0-6.8-.87,25.42,25.42,0,0,0-4.61.25c-.54.09-1,.17-1.24.24A3.49,3.49,0,0,1,161.92,279.11Z"/><g class="cls-13"><path d="M201.69,281.19c1.12,3.09,1.15,6.91-1.12,9.28-1.86,1.93-4.84,2.41-7.47,1.89a23.61,23.61,0,0,1-7.29-3.28c-5.78-3.44-11.65-7-18.21-8.45a2.33,2.33,0,0,1-1.18-.49.79.79,0,0,1,0-1.12l0,0a1.08,1.08,0,0,1,.55-.15c5.8-.59,11.38,1.71,17.07,3s12.22,2.61,17.43-.46"/></g><path class="cls-8" d="M193.68,269.88a3.76,3.76,0,0,1,1.43,1.37c.66,1.06.57,2.87.57,4.82-.1,3.91-.75,7-.6,7.07a6.64,6.64,0,0,0,.57-2,31.11,31.11,0,0,0,.56-5,21.82,21.82,0,0,0-.06-2.8,5.06,5.06,0,0,0-.72-2.23,2.88,2.88,0,0,0-1.19-1.05C193.9,269.84,193.68,269.85,193.68,269.88Z"/><path class="cls-8" d="M182.59,281.37a62.17,62.17,0,0,1,.3-6.4,63.4,63.4,0,0,1,1.49-6.23,5.25,5.25,0,0,0-.86,1.7,20.89,20.89,0,0,0-1.15,4.46,20.23,20.23,0,0,0-.13,4.6A5.68,5.68,0,0,0,182.59,281.37Z"/><path class="cls-8" d="M169.08,267.63a4.09,4.09,0,0,0-.8,1.55,10.79,10.79,0,0,0,.56,8.29,4.07,4.07,0,0,0,1,1.43,14,14,0,0,1-.76-11.27Z"/><path class="cls-12" d="M254.57,405.22s-5.65-72.51-8.6-86.11c-3.76-17.3-18.06-26.88-18.06-26.88l-5.85,134.1,11.42,16.94,13.81,5.31a14.37,14.37,0,0,0,9.89.15l13.29-4.63,1.12-25.31-11.22-3.25Z"/><polyline class="cls-12" points="214.89 450.67 213.34 350.22 210.49 285.51 203.66 279.55 227.91 292.23 233.63 311.04 238.73 365.54 229.13 429.44 235.74 450.47"/><path class="cls-9" d="M234.43,402.4s.09-.27.23-.79l.57-2.29c.25-1,.54-2.21.82-3.64s.65-3,.94-4.85.65-3.78.93-5.92.54-4.42.8-6.82c.44-4.83.73-10.15.73-15.74s-.34-10.92-.79-15.74c-.27-2.41-.5-4.7-.83-6.82s-.62-4.12-1-5.92-.66-3.42-1-4.85-.58-2.64-.84-3.63-.43-1.72-.58-2.29a4.12,4.12,0,0,0-.23-.78,4.55,4.55,0,0,0,.13.81c.12.57.28,1.34.49,2.3s.48,2.22.74,3.65.61,3.05.88,4.85.62,3.78.88,5.91.53,4.42.78,6.82c.43,4.81.72,10.11.75,15.69s-.28,10.88-.69,15.69c-.24,2.4-.45,4.69-.75,6.82s-.57,4.11-.87,5.91-.6,3.43-.86,4.86-.51,2.65-.73,3.65-.35,1.73-.47,2.31A3.71,3.71,0,0,0,234.43,402.4Z"/><path class="cls-12" d="M116.37,290.7a33.32,33.32,0,0,0-20.44,23.73c-7.93,35-21.5,81.47-21.71,96.47-.27,19.12,8.09,32.2,19,34.61,6.23,1.38,48.68.69,71.73.2a17.16,17.16,0,0,0,16.66-15h0a17.18,17.18,0,0,0-14.54-19.13l-46.69-6.87,8.67-48.45-8.58-67.11Z"/><path class="cls-12" d="M163.13,332.91l-8.77-45.77a18.08,18.08,0,0,1,1.82-12.73l-.1-2.38L138,282l-17.51,7.16-.42,53.22L130.6,450.22l37.11.14-.07-48.15A280.06,280.06,0,0,0,163.13,332.91Z"/><path class="cls-9" d="M129.56,351.33a2,2,0,0,0-.14.54c-.08.41-.18.92-.31,1.55l-1,5.72c-.86,4.91-2,11.56-3.3,18.92s-2.33,14-3.15,18.94c-.37,2.37-.68,4.31-.9,5.74-.09.64-.16,1.16-.22,1.57a2.53,2.53,0,0,0,0,.55,2,2,0,0,0,.14-.53c.09-.41.19-.93.32-1.55.26-1.43.62-3.36,1.06-5.72.88-4.84,2-11.52,3.31-18.92s2.37-14.08,3.14-18.93c.37-2.38.67-4.32.89-5.76.08-.63.15-1.15.2-1.57A3.39,3.39,0,0,0,129.56,351.33Z"/><path class="cls-9" d="M112,298.26a9.09,9.09,0,0,0,1.43.53,34.54,34.54,0,0,1,3.8,1.64,29.62,29.62,0,0,1,10.27,8.76,18.59,18.59,0,0,1,3.22,6.68,33,33,0,0,1,1,6c.15,1.74.18,3.16.19,4.14s0,1.53,0,1.53a6,6,0,0,0,.17-1.52,41.63,41.63,0,0,0,0-4.18,32.64,32.64,0,0,0-.92-6.14,21.43,21.43,0,0,0-1.22-3.48,21.19,21.19,0,0,0-2.06-3.38,28.64,28.64,0,0,0-10.54-8.78,27.06,27.06,0,0,0-3.9-1.5A8.77,8.77,0,0,0,112,298.26Z"/><path class="cls-16" d="M88.75,349.3c0,.14-.26.22-.53.18s-.48-.19-.45-.33.25-.23.53-.18S88.78,349.16,88.75,349.3Z"/><path class="cls-16" d="M92.59,350c0,.14-.48.17-1,.08s-.94-.3-.91-.44.47-.18,1-.08S92.62,349.84,92.59,350Z"/><path class="cls-16" d="M96.4,350.81c0,.14-.49.15-1,0s-.92-.33-.89-.47.48-.15,1,0S96.43,350.67,96.4,350.81Z"/><path class="cls-16" d="M100.17,351.78c0,.14-.49.14-1,0s-.91-.36-.87-.5.49-.14,1,0S100.21,351.64,100.17,351.78Z"/><path class="cls-16" d="M103.9,352.9c0,.14-.49.12-1,0s-.9-.4-.86-.54.5-.12,1,0S104,352.76,103.9,352.9Z"/><path class="cls-16" d="M107.59,354.16c0,.14-.5.1-1-.08s-.88-.43-.84-.57.5-.1,1,.08S107.64,354,107.59,354.16Z"/><path class="cls-16" d="M111.23,355.56c-.06.14-.51.08-1-.11s-.87-.47-.81-.61.5-.08,1,.12S111.28,355.43,111.23,355.56Z"/><path class="cls-16" d="M114.81,357.1c-.06.13-.51.06-1-.15s-.84-.5-.79-.63.51-.07,1,.15S114.87,357,114.81,357.1Z"/><path class="cls-16" d="M118.32,358.78c-.06.13-.5,0-1-.19s-.82-.54-.76-.67.51,0,1,.2S118.39,358.65,118.32,358.78Z"/><path class="cls-16" d="M121.78,360.59c-.07.13-.51,0-1-.23s-.8-.57-.73-.69.5,0,1,.23S121.84,360.46,121.78,360.59Z"/><path class="cls-16" d="M125.15,362.53c-.07.12-.51,0-1-.27s-.78-.59-.71-.72.51,0,1,.27S125.23,362.41,125.15,362.53Z"/><path class="cls-16" d="M127.66,364.09c-.08.12-.33.1-.57,0s-.35-.37-.28-.49.33-.1.56,0S127.73,364,127.66,364.09Z"/><path class="cls-16" d="M125.92,375.1c0,.14-.26.23-.53.19s-.48-.18-.46-.32.26-.23.53-.19S125.94,375,125.92,375.1Z"/><path class="cls-16" d="M129.8,375.55c0,.14-.46.21-1,.15s-1-.22-.94-.36.46-.21,1-.16S129.81,375.4,129.8,375.55Z"/><path class="cls-16" d="M133.69,375.88c0,.15-.46.23-1,.19s-1-.2-.95-.34.46-.23,1-.18S133.7,375.74,133.69,375.88Z"/><path class="cls-16" d="M137.58,376.11c0,.15-.44.24-1,.21s-1-.16-1-.31.46-.24,1-.21S137.59,376,137.58,376.11Z"/><path class="cls-16" d="M141.49,376.23c0,.15-.45.25-1,.24s-1-.14-1-.28.45-.25,1-.24S141.49,376.09,141.49,376.23Z"/><path class="cls-16" d="M145.39,376.25c0,.14-.44.26-1,.26s-1-.11-1-.26.43-.26,1-.26S145.39,376.1,145.39,376.25Z"/><path class="cls-16" d="M149.29,376.15c0,.14-.43.28-1,.29s-1-.08-1-.23.43-.27,1-.29S149.29,376,149.29,376.15Z"/><path class="cls-16" d="M153.19,376c0,.14-.42.28-1,.32s-1-.06-1-.21.42-.28,1-.31S153.18,375.81,153.19,376Z"/><path class="cls-16" d="M157.08,375.64c0,.14-.41.3-1,.34s-1,0-1-.17.41-.3,1-.35S157.07,375.5,157.08,375.64Z"/><path class="cls-16" d="M161,375.22c0,.14-.4.31-.94.37s-1,0-1-.15.41-.31.94-.37S160.94,375.08,161,375.22Z"/><path class="cls-16" d="M164.83,374.69c0,.15-.4.32-.93.4s-1,0-1-.12.39-.32.93-.39S164.81,374.55,164.83,374.69Z"/><path class="cls-16" d="M167.74,374.23c0,.14-.18.29-.45.34s-.51,0-.54-.18.18-.29.45-.34S167.72,374.08,167.74,374.23Z"/><path class="cls-16" d="M214.87,369.38c0,.14-.16.31-.43.37s-.51,0-.55-.15.16-.3.43-.36S214.84,369.24,214.87,369.38Z"/><path class="cls-16" d="M218.81,368.67c0,.14-.4.33-.94.42s-1,0-1-.1.39-.33.94-.42S218.79,368.52,218.81,368.67Z"/><path class="cls-16" d="M222.8,368.22c0,.14-.43.3-1,.35s-1,0-1-.16.42-.3,1-.36S222.79,368.07,222.8,368.22Z"/><path class="cls-16" d="M226.8,368c0,.14-.44.27-1,.29s-1-.09-1-.23.44-.27,1-.29S226.8,367.89,226.8,368Z"/><path class="cls-16" d="M230.81,368.11c0,.15-.46.25-1,.23s-1-.16-1-.3.45-.25,1-.22S230.82,368,230.81,368.11Z"/><path class="cls-16" d="M234.81,368.46c0,.14-.48.21-1,.16s-1-.22-1-.37.47-.21,1-.15S234.83,368.32,234.81,368.46Z"/><path class="cls-16" d="M237.78,368.9c0,.14-.26.22-.53.17s-.48-.19-.46-.33.27-.22.54-.18S237.81,368.76,237.78,368.9Z"/><path class="cls-16" d="M239.73,383.17c0,.14-.28.19-.55.11s-.46-.24-.41-.38.29-.19.55-.12S239.77,383,239.73,383.17Z"/><path class="cls-16" d="M244,383.8c0,.15-.5.22-1.1.16s-1.07-.22-1.05-.37.52-.21,1.1-.15S244,383.66,244,383.8Z"/><path class="cls-16" d="M248.32,383.57c0,.14-.45.31-1,.37s-1.1,0-1.11-.15.47-.31,1-.37S248.29,383.43,248.32,383.57Z"/><path class="cls-16" d="M251.39,382.85c0,.13-.14.31-.41.39s-.52,0-.55-.12.15-.31.41-.38S251.35,382.71,251.39,382.85Z"/><path class="cls-16" d="M212.32,324.75c0,.15-.19.29-.46.33s-.51-.05-.53-.19.19-.29.46-.33S212.3,324.61,212.32,324.75Z"/><path class="cls-16" d="M216.15,324.41c0,.14-.41.29-.94.33s-1-.05-1-.19.41-.29.94-.33S216.14,324.26,216.15,324.41Z"/><path class="cls-16" d="M220,324.33c0,.14-.44.26-1,.26s-1-.11-1-.26.43-.26,1-.26S220,324.18,220,324.33Z"/><path class="cls-16" d="M223.84,324.51c0,.15-.45.24-1,.2s-1-.18-.94-.32.44-.23,1-.2S223.85,324.37,223.84,324.51Z"/><path class="cls-16" d="M227.66,325c0,.14-.47.2-1,.12s-.93-.24-.92-.38.46-.2,1-.13S227.68,324.82,227.66,325Z"/><path class="cls-16" d="M231.44,325.68c0,.14-.48.17-1,.06s-.91-.31-.89-.45.47-.17,1-.06S231.47,325.54,231.44,325.68Z"/><path class="cls-16" d="M234.27,326.4c0,.14-.29.19-.55.12s-.45-.24-.42-.38.29-.2.55-.12S234.31,326.26,234.27,326.4Z"/><path class="cls-16" d="M212.31,290.41c0,.15-.24.25-.51.24s-.49-.15-.49-.29.24-.25.52-.23S212.32,290.27,212.31,290.41Z"/><path class="cls-16" d="M216.62,290.77c0,.15-.51.22-1.1.16s-1.06-.22-1.05-.36.5-.22,1.1-.16S216.64,290.63,216.62,290.77Z"/><path class="cls-16" d="M220.9,291.36c0,.14-.52.19-1.1.1s-1.05-.28-1-.42.51-.19,1.1-.1S220.93,291.22,220.9,291.36Z"/><path class="cls-16" d="M225.15,292.17c0,.14-.53.16-1.11,0s-1-.33-1-.47.53-.16,1.11,0S225.18,292,225.15,292.17Z"/><path class="cls-16" d="M228.23,292.9c0,.14-.28.2-.55.13s-.46-.23-.42-.37.28-.2.55-.14S228.26,292.76,228.23,292.9Z"/><path class="cls-16" d="M132.8,320.25c0,.14-.15.31-.41.38s-.52,0-.55-.13.14-.31.41-.38S132.77,320.11,132.8,320.25Z"/><path class="cls-16" d="M136.72,319.33c0,.14-.38.35-.92.47s-1,.11-1,0,.38-.35.92-.48S136.69,319.19,136.72,319.33Z"/><path class="cls-16" d="M140.68,318.59c0,.14-.4.33-1,.43s-1,.06-1-.08.39-.34.94-.44S140.65,318.44,140.68,318.59Z"/><path class="cls-16" d="M144.66,318c0,.14-.41.31-1,.38s-1,0-1-.12.41-.32,1-.39S144.64,317.87,144.66,318Z"/><path class="cls-16" d="M148.67,317.62c0,.14-.43.3-1,.35s-1,0-1-.17.43-.3,1-.35S148.66,317.48,148.67,317.62Z"/><path class="cls-16" d="M152.69,317.4c0,.15-.44.28-1,.31s-1-.08-1-.22.43-.28,1-.3S152.68,317.26,152.69,317.4Z"/><path class="cls-16" d="M156.71,317.36c0,.14-.45.26-1,.26s-1-.12-1-.26.45-.26,1-.26S156.71,317.22,156.71,317.36Z"/><path class="cls-16" d="M159.73,317.45c0,.14-.24.25-.51.24s-.5-.14-.49-.28.23-.26.51-.24S159.73,317.3,159.73,317.45Z"/><path class="cls-16" d="M101,304.63c0,.14-.17.3-.44.35s-.52,0-.54-.16.16-.3.44-.35S101,304.49,101,304.63Z"/><path class="cls-16" d="M104.76,304.1c0,.14-.4.31-.91.37s-.95,0-1-.15.39-.31.91-.37S104.74,304,104.76,304.1Z"/><path class="cls-16" d="M108.53,303.88c0,.14-.42.27-.94.29s-.94-.08-1-.22.41-.28.93-.3S108.52,303.73,108.53,303.88Z"/><path class="cls-16" d="M112.3,304c0,.14-.44.24-1,.22s-.94-.16-.93-.31.43-.24,1-.21S112.31,303.83,112.3,304Z"/><path class="cls-16" d="M116.06,304.37c0,.14-.46.2-1,.14s-.92-.24-.91-.38.45-.21,1-.14S116.08,304.23,116.06,304.37Z"/><path class="cls-16" d="M119.77,305.07c0,.14-.47.17-1,.06s-.9-.31-.87-.45.47-.17,1-.06S119.8,304.93,119.77,305.07Z"/><path class="cls-16" d="M123.41,306.08c0,.14-.48.13-1,0s-.87-.38-.83-.52.48-.13,1,0S123.45,305.94,123.41,306.08Z"/><path class="cls-16" d="M126.13,307.05c-.06.14-.31.17-.56.07s-.43-.29-.38-.42.3-.17.56-.07S126.18,306.92,126.13,307.05Z"/><path class="cls-16" d="M134.78,284.88c0,.14-.21.27-.49.28s-.5-.09-.51-.24.21-.27.49-.28S134.77,284.73,134.78,284.88Z"/><path class="cls-16" d="M138.36,284.71c0,.14-.38.28-.88.3s-.9-.07-.91-.22.39-.28.89-.3S138.36,284.56,138.36,284.71Z"/><path class="cls-16" d="M142,284.54c0,.14-.39.27-.88.3s-.91-.08-.91-.22.39-.28.88-.3S141.94,284.39,142,284.54Z"/><path class="cls-16" d="M145.53,284.36c0,.15-.38.28-.88.31s-.9-.08-.91-.22.39-.28.89-.3S145.53,284.22,145.53,284.36Z"/><path class="cls-16" d="M149.12,284.19c0,.15-.39.28-.88.31s-.91-.08-.91-.22.39-.28.88-.3S149.11,284.05,149.12,284.19Z"/><path class="cls-16" d="M151.91,284.06c0,.15-.21.27-.49.29s-.5-.1-.51-.24.21-.27.49-.28S151.9,283.92,151.91,284.06Z"/><path class="cls-16" d="M80.76,432.46c.1.11,0,.35-.17.54s-.44.27-.54.17,0-.35.17-.54S80.66,432.36,80.76,432.46Z"/><path class="cls-16" d="M83.55,429.8c.1.11-.13.49-.52.85s-.78.58-.88.47.13-.48.52-.85S83.46,429.69,83.55,429.8Z"/><path class="cls-16" d="M86.43,427.22c.09.11-.15.48-.55.83s-.8.56-.9.45.15-.48.55-.84S86.33,427.11,86.43,427.22Z"/><path class="cls-16" d="M89.37,424.72c.1.11-.16.48-.57.82s-.82.53-.91.42.17-.48.58-.82S89.28,424.61,89.37,424.72Z"/><path class="cls-16" d="M92.39,422.31c.09.11-.18.47-.6.8s-.83.51-.92.4.18-.48.6-.81S92.3,422.2,92.39,422.31Z"/><path class="cls-16" d="M95.48,420c.08.11-.2.47-.62.78s-.85.48-.93.37.19-.47.62-.79S95.39,419.87,95.48,420Z"/><path class="cls-16" d="M98.63,417.76c.08.11-.21.46-.64.76s-.86.46-.95.34.21-.46.65-.77S98.55,417.64,98.63,417.76Z"/><path class="cls-16" d="M101.84,415.61c.08.12-.22.46-.66.75s-.87.43-1,.31.22-.45.66-.74S101.76,415.49,101.84,415.61Z"/><path class="cls-16" d="M105.12,413.57c.07.12-.24.45-.69.72s-.88.41-1,.29.23-.45.69-.73S105,413.44,105.12,413.57Z"/><path class="cls-16" d="M108.45,411.61c.07.13-.25.45-.71.71s-.89.38-1,.26.24-.44.7-.71S108.38,411.49,108.45,411.61Z"/><path class="cls-16" d="M111.84,409.76c.06.13-.26.43-.73.68s-.9.36-1,.23.25-.43.72-.68S111.77,409.63,111.84,409.76Z"/><path class="cls-16" d="M115.28,408c.06.13-.27.43-.75.67s-.91.33-1,.2.27-.43.75-.67S115.21,407.87,115.28,408Z"/><path class="cls-16" d="M118.76,406.35c.06.13-.28.41-.76.64s-.92.3-1,.17.29-.42.77-.64S118.71,406.21,118.76,406.35Z"/><path class="cls-16" d="M121.44,405.16c.06.13-.1.33-.35.44s-.51.09-.56,0,.1-.33.35-.44S121.39,405,121.44,405.16Z"/><path class="cls-16" d="M158.89,412.72c-.13-.06-.14-.31,0-.56s.33-.4.45-.34.14.32,0,.57S159,412.78,158.89,412.72Z"/><path class="cls-16" d="M157.35,416.23c-.13-.05-.07-.49.13-1s.48-.84.61-.79.08.5-.13,1S157.49,416.28,157.35,416.23Z"/><path class="cls-16" d="M156,419.82c-.14,0-.11-.48.06-1s.43-.87.57-.82.1.49-.07,1S156.17,419.87,156,419.82Z"/><path class="cls-16" d="M154.94,423.49c-.14,0-.14-.48,0-1s.37-.89.51-.85.13.49,0,1S155.08,423.53,154.94,423.49Z"/><path class="cls-16" d="M154.06,427.22c-.14,0-.16-.47-.05-1s.32-.91.46-.88.16.48.05,1S154.2,427.25,154.06,427.22Z"/><path class="cls-16" d="M153.41,431c-.14,0-.19-.46-.11-1s.27-.93.41-.91.19.47.11,1S153.55,431,153.41,431Z"/><path class="cls-16" d="M153,434.8c-.14,0-.22-.45-.17-1s.21-.94.35-.93.22.46.17,1S153.13,434.81,153,434.8Z"/><path class="cls-16" d="M152.8,438.62c-.15,0-.25-.43-.23-1s.15-1,.3-1,.24.44.22,1S152.94,438.63,152.8,438.62Z"/><path class="cls-16" d="M152.84,442.45c-.14,0-.27-.42-.29-.95s.1-1,.24-1,.27.42.29.95S153,442.45,152.84,442.45Z"/><path class="cls-16" d="M153,445.36c-.14,0-.28-.2-.3-.48s.08-.51.22-.52.28.21.3.48S153.17,445.35,153,445.36Z"/><path class="cls-16" d="M258.6,415.84c-.06-.13.09-.33.35-.45s.5-.1.56,0-.1.33-.34.45S258.67,416,258.6,415.84Z"/><path class="cls-16" d="M255.2,417.81c-.08-.12.23-.45.69-.74s.91-.43,1-.3-.24.46-.7.74S255.28,417.93,255.2,417.81Z"/><path class="cls-16" d="M252.1,420.23c-.1-.1.16-.47.58-.83s.84-.54.93-.43-.18.49-.59.83S252.19,420.34,252.1,420.23Z"/><path class="cls-16" d="M249.35,423.06c-.11-.1.1-.5.47-.91s.75-.65.86-.55-.11.5-.47.9S249.46,423.15,249.35,423.06Z"/><path class="cls-16" d="M247,426.23c-.12-.08,0-.51.34-1s.66-.76.77-.67,0,.52-.34,1S247.15,426.3,247,426.23Z"/><path class="cls-16" d="M245.16,429.69c-.13-.06,0-.5.2-1s.55-.83.67-.76,0,.51-.2,1S245.3,429.75,245.16,429.69Z"/><path class="cls-16" d="M243.8,433.39c-.13,0-.11-.5.06-1s.43-.9.56-.85.11.5-.06,1S243.94,433.42,243.8,433.39Z"/><path class="cls-16" d="M243,437.23c-.14,0-.18-.48-.08-1s.3-1,.44-.92.17.49.07,1S243.1,437.25,243,437.23Z"/><path class="cls-16" d="M242.65,441.15c-.15,0-.24-.45-.22-1s.16-1,.31-1,.24.46.21,1S242.79,441.15,242.65,441.15Z"/><path class="cls-16" d="M242.77,444.11c-.14,0-.27-.2-.29-.48s.07-.51.22-.52.27.21.29.48S242.92,444.1,242.77,444.11Z"/><path class="cls-16" d="M216.1,430.07c0,.14-.27.21-.54.16s-.47-.22-.44-.36.28-.21.55-.15S216.13,429.93,216.1,430.07Z"/><path class="cls-16" d="M220.2,430.64c0,.15-.48.21-1,.15s-1-.23-1-.38.49-.2,1-.14S220.21,430.5,220.2,430.64Z"/><path class="cls-16" d="M224.34,430.78c0,.14-.46.26-1,.25s-1-.12-1-.26.47-.26,1-.26S224.34,430.64,224.34,430.78Z"/><path class="cls-16" d="M228.47,430.48c0,.15-.43.31-1,.36s-1,0-1.05-.15.44-.31,1-.36S228.45,430.34,228.47,430.48Z"/><path class="cls-16" d="M231.5,430c0,.14-.17.3-.44.35s-.52,0-.54-.16.17-.3.44-.35S231.47,429.84,231.5,430Z"/><path class="cls-9" d="M168.13,411.75a2.81,2.81,0,0,1-.65-.05l-1.86-.23-6.82-1-22.48-3.34L120,404.66h0a11.52,11.52,0,0,0-5.68,2.51,12.28,12.28,0,0,0-3.1,3.7,14.27,14.27,0,0,0-1.38,4v-.29a7.53,7.53,0,0,1,.1-.83,11.39,11.39,0,0,1,1-3,12.61,12.61,0,0,1,3.1-3.86,11.83,11.83,0,0,1,5.85-2.66H120l16.36,2.45,22.45,3.48,6.8,1.12,1.84.33A3.16,3.16,0,0,1,168.13,411.75Z"/><path class="cls-9" d="M164.37,445.72a1.76,1.76,0,0,1-.44-.15,9.63,9.63,0,0,1-1.23-.55,13.52,13.52,0,0,1-3.85-3.08,17.57,17.57,0,0,1-3.51-6.43,20.6,20.6,0,0,1-.68-8.93,17.11,17.11,0,0,1,3.68-8.16,18.13,18.13,0,0,1,5.65-4.65,16,16,0,0,1,4.65-1.64A10.26,10.26,0,0,1,170,412a1.85,1.85,0,0,1,.47,0,20.48,20.48,0,0,0-6.28,2.14,18.24,18.24,0,0,0-5.45,4.63,17.06,17.06,0,0,0-3.53,7.94,20.69,20.69,0,0,0,.62,8.71,17.75,17.75,0,0,0,3.33,6.33,14.16,14.16,0,0,0,3.67,3.14A16.84,16.84,0,0,1,164.37,445.72Z"/><g class="cls-17"><polygon points="128.87 354.79 135.84 406.85 127.01 404.86 124.27 382.16 128.87 354.79"/></g><g class="cls-13"><path d="M271.41,418.81a35.09,35.09,0,0,0-12.68,0,12.74,12.74,0,0,0-8.46,6.47,14.66,14.66,0,0,0-1.44,10c.6,2.93,1.23,6,3.37,8,3.16,3.07,6.28,4.06,10.36,3.34l7.91-2.58Z"/></g><path class="cls-9" d="M264.64,446.13a2,2,0,0,1-.52.22,9.45,9.45,0,0,1-1.58.43,11.76,11.76,0,0,1-6-.33,10.42,10.42,0,0,1-3.63-2.07,12.65,12.65,0,0,1-2.89-3.81,18,18,0,0,1-1.66-5,15,15,0,0,1-.13-5.67,17.57,17.57,0,0,1,2.1-5.27,12.23,12.23,0,0,1,7.93-5.88,21.35,21.35,0,0,1,4.14-.47,40.14,40.14,0,0,1,6,.39l1.61.23a2.66,2.66,0,0,1,.56.12,2.71,2.71,0,0,1-.57,0l-1.62-.14a51.2,51.2,0,0,0-5.94-.22,20.67,20.67,0,0,0-4,.52,12.06,12.06,0,0,0-4.2,1.92,15.09,15.09,0,0,0-5.43,8.91,14.85,14.85,0,0,0,.12,5.48,17.94,17.94,0,0,0,1.58,4.89,12.57,12.57,0,0,0,2.76,3.71,10.18,10.18,0,0,0,3.46,2,12.1,12.1,0,0,0,5.82.48C263.89,446.36,264.63,446.08,264.64,446.13Z"/><path class="cls-9" d="M234.66,401.61a1.4,1.4,0,0,1-.06.5c-.06.39-.15.86-.25,1.43-.25,1.23-.57,3-.95,5.23a107.07,107.07,0,0,0-1.6,17.42,79.2,79.2,0,0,0,.59,9.61,75.22,75.22,0,0,0,1.42,7.74c.23,1.1.53,2.07.75,2.93s.45,1.59.64,2.19.3,1,.41,1.39a1.72,1.72,0,0,1,.11.5,2.18,2.18,0,0,1-.21-.47l-.5-1.35c-.22-.59-.48-1.32-.73-2.18s-.58-1.82-.83-2.92a68.25,68.25,0,0,1-1.54-7.76,76.38,76.38,0,0,1-.63-9.68A95.81,95.81,0,0,1,233,408.71c.42-2.21.8-4,1.11-5.21.14-.57.26-1,.35-1.41A1.68,1.68,0,0,1,234.66,401.61Z"/><g class="cls-13"><path d="M169.27,412.05c-3.7,1-7.63,2.16-10.17,5a19.4,19.4,0,0,0-1.2,22.82,15.24,15.24,0,0,0,4.57,4.75,9.62,9.62,0,0,0,6.15.86,15.55,15.55,0,0,0,11.92-10.82,21.26,21.26,0,0,0-2.39-17c-1.5-2.25-6.3-4.81-8.88-5.63"/></g><path class="cls-14" d="M305.52,440.85c.26,0,1.59.78.53,2.88s-8.93,9.14-11.34,6.8,1.13-5.34,1.13-5.34Z"/><path class="cls-14" d="M295.5,445.29s-9.65,1.42-13.35,2.91c-4,1.63-9,.68-12.34-1.5a34.7,34.7,0,0,1-5.34-4.17l-12.35.07a14.83,14.83,0,0,1-2.73-15.26,16.63,16.63,0,0,1,2.73-4.88c1.43-1.61,3.72-2.95,7.71-3.72l14.74,2.86s22.7-2.1,26.78-.28c0,0,5.14,2.91,6.74,4.14.6.46,2.52,6.21-1.11,9.29,0,0,3.27,2.5,1.58,4.83l-.82,1s2.23,2.75,1.14,4-10.69,7.14-14.2,5.86-.7-4.57.82-5.19"/><path class="cls-15" d="M304.44,429.81a8.1,8.1,0,0,0-1.19.45c-.76.31-1.87.75-3.25,1.22-.7.24-1.46.48-2.29.72s-1.73.44-2.66.76a5.74,5.74,0,0,0-2.63,1.67,3.26,3.26,0,0,0-.64,3.26,2.54,2.54,0,0,0,1.22,1.26,4.37,4.37,0,0,0,1.63.42,13.25,13.25,0,0,0,3.08-.23,27.12,27.12,0,0,0,5-1.41c1.38-.52,2.47-1,3.22-1.35a7.58,7.58,0,0,0,1.14-.57,8.58,8.58,0,0,0-1.2.43c-.77.29-1.87.74-3.26,1.22a30.94,30.94,0,0,1-5,1.32,14.37,14.37,0,0,1-3,.2,4.49,4.49,0,0,1-1.48-.38,2.21,2.21,0,0,1-1-1.07,2.92,2.92,0,0,1,.58-2.86,5.49,5.49,0,0,1,2.45-1.56c.9-.32,1.8-.53,2.63-.79s1.59-.51,2.28-.77c1.39-.51,2.48-1,3.22-1.34A8.37,8.37,0,0,0,304.44,429.81Z"/><path class="cls-15" d="M303.42,422.83a8,8,0,0,0-1.18.45c-.76.31-1.85.76-3.23,1.25s-3,1-4.89,1.52a6.77,6.77,0,0,0-2.85,1.22,2.46,2.46,0,0,0-.81,1.5,3.08,3.08,0,0,0,.28,1.72,4.15,4.15,0,0,0,2.58,2.11,6.73,6.73,0,0,0,3.09.18,30.4,30.4,0,0,0,4.94-1.54l3.24-1.22a8.14,8.14,0,0,0,1.18-.49,6.6,6.6,0,0,0-1.23.34l-3.29,1.1a32.23,32.23,0,0,1-4.89,1.44,6.29,6.29,0,0,1-2.92-.19,3.75,3.75,0,0,1-2.33-1.9,2.28,2.28,0,0,1,.43-2.76,6.38,6.38,0,0,1,2.67-1.15,49.23,49.23,0,0,0,4.9-1.61c1.37-.53,2.45-1,3.19-1.37A7.51,7.51,0,0,0,303.42,422.83Z"/><path class="cls-15" d="M298.8,424.92a11.84,11.84,0,0,0,.4-1.95,10.71,10.71,0,0,0,.45-1.94A4.75,4.75,0,0,0,298.8,424.92Z"/><path class="cls-14" d="M264.64,425.93l8.56-3.51s23.73-11.68,24.15-11.09,1.72.51,1.49,3.43-14.06,9.12-14.48,10.14.42,6.12-4.66,9.9-8.8,3.93-8.8,3.93"/><path class="cls-15" d="M270.9,438.73h.2l.6-.07a13.08,13.08,0,0,0,2.23-.59,19.06,19.06,0,0,0,3.31-1.52,19.89,19.89,0,0,0,3.92-2.84A10.47,10.47,0,0,0,284,428.6a23.44,23.44,0,0,0,.44-3.23,1.53,1.53,0,0,1,.08-.37c0-.08.11-.15.22-.24s.45-.32.69-.47c.48-.3,1-.58,1.5-.87,2.06-1.15,4.25-2.32,6.45-3.65,1.13-.67,2.22-1.39,3.28-2.17a11.49,11.49,0,0,0,1.54-1.33,4.4,4.4,0,0,0,.64-.85,2,2,0,0,0,.19-.54v-.53a3.84,3.84,0,0,0-.42-2.08,2.51,2.51,0,0,0-.77-.75,1.3,1.3,0,0,1-.34-.28l-.09-.08a.34.34,0,0,0-.17-.05h-.16l-.26.07c-1.29.42-2.47,1-3.65,1.48-2.35,1-4.59,2.11-6.73,3.12-4.26,2-8.08,3.9-11.27,5.48-.81.39-1.56.79-2.29,1.12l-2.09.87-3.35,1.41-2.11.91-.55.24-.18.1a.54.54,0,0,0,.2-.06l.56-.21,2.14-.83,3.38-1.35,2.11-.85c.74-.32,1.49-.71,2.3-1.09l11.31-5.4c2.14-1,4.38-2.05,6.73-3.09,1.17-.51,2.37-1.06,3.6-1.47l.22-.06h.08v-.1h0c-.27.19-.07.06-.12.11h0a1.65,1.65,0,0,0,.43.36,2.09,2.09,0,0,1,.66.63,3.41,3.41,0,0,1,.35,1.86,1.72,1.72,0,0,1-.18.89,3.56,3.56,0,0,1-.58.76,12.11,12.11,0,0,1-1.48,1.29,37.11,37.11,0,0,1-3.24,2.15c-2.2,1.33-4.38,2.5-6.43,3.66l-1.51.89a7.25,7.25,0,0,0-.73.5,1.13,1.13,0,0,0-.33.39,1.8,1.8,0,0,0-.09.45,24.73,24.73,0,0,1-.42,3.21,10.16,10.16,0,0,1-2.71,5,19.7,19.7,0,0,1-3.83,2.84,20.32,20.32,0,0,1-3.25,1.58,14.91,14.91,0,0,1-2.19.65c-.26.06-.46.09-.59.11Z"/><path class="cls-15" d="M297.35,439.3a3.22,3.22,0,0,0-.91.29,9.06,9.06,0,0,0-3.51,2.64,2.7,2.7,0,0,0-.65,2,2.23,2.23,0,0,0,1.63,1.69,4.3,4.3,0,0,0,2.51-.13,47.14,47.14,0,0,0,7.88-3.36,23.91,23.91,0,0,0,2.21-1.37,3.49,3.49,0,0,0,.74-.59,6.07,6.07,0,0,0-.83.46c-.52.31-1.29.75-2.26,1.25a55.42,55.42,0,0,1-7.86,3.22,4,4,0,0,1-2.27.14,1.88,1.88,0,0,1-1.39-1.37,2.5,2.5,0,0,1,.56-1.78,8,8,0,0,1,1.2-1.27A13.55,13.55,0,0,1,297.35,439.3Z"/><path class="cls-14" d="M161.4,415.69l15.23.32s22.84-8.26,27.54-7.47c4.23.71,19.72,11,22.75,13a2,2,0,0,1,.74.93h0a3.33,3.33,0,0,1-1.85,4.22l-.32.14.14.46a5.5,5.5,0,0,1,.23,1.85,2.23,2.23,0,0,1-4.15,1l.58,1a2.58,2.58,0,0,1,.33,1.39l-.05.94a2.56,2.56,0,0,1-1.75,2.27h0a2.52,2.52,0,0,1-2.66-.7c-2-2.16-6.21-6.48-9.08-7a66.84,66.84,0,0,0-9.38-.47,3.16,3.16,0,0,0-2.94,2h0c1.7.12,13.57,6.31,17.77,8.52a4.49,4.49,0,0,1,2.44,3.38c.15,1.32-.51,2.7-3.11,2.09-5.58-1.3-15.62-5.92-15.62-5.92s-5.18-1.48-8.54.89c-4.72,3.33-6.88,4.55-10.94,3.2a34.06,34.06,0,0,1-7-3.27l-13.82,1.34S149.45,426.15,161.4,415.69Z"/><path class="cls-15" d="M196.67,419.86c0,.09,1.62-.42,4.29-.59a22.13,22.13,0,0,1,18.46,7.88,38.2,38.2,0,0,1,2.54,3.51,4.31,4.31,0,0,0-.51-1.06,18.94,18.94,0,0,0-1.79-2.65,21.48,21.48,0,0,0-18.72-8,19.86,19.86,0,0,0-3.16.53A4.85,4.85,0,0,0,196.67,419.86Z"/><path class="cls-15" d="M199.09,414.32a18.79,18.79,0,0,1,4.47-.78A19.44,19.44,0,0,1,214,416.48a42.34,42.34,0,0,1,8.37,7.08l2.29,2.44a7.23,7.23,0,0,0,.88.87,7.25,7.25,0,0,0-.75-1c-.51-.61-1.25-1.48-2.2-2.53a38.15,38.15,0,0,0-8.37-7.25,19.15,19.15,0,0,0-10.63-2.88,12.81,12.81,0,0,0-3.31.61,6.92,6.92,0,0,0-.86.33C199.18,414.25,199.08,414.3,199.09,414.32Z"/></g><g id="freepik--device-2--inject-67"><path class="cls-8" d="M395.67,450.47a21.92,21.92,0,0,1,17.48-9.87c11.93-.41,17.9,9.87,17.9,9.87Z"/><path class="cls-9" d="M418.54,450.17c-.08,0-.1-.7-.35-1.78a11.42,11.42,0,0,0-4.73-7,12.85,12.85,0,0,1-1.52-1,4.08,4.08,0,0,1,1.72.67,10.19,10.19,0,0,1,4.9,7.21A3.94,3.94,0,0,1,418.54,450.17Z"/><path class="cls-8" d="M623.05,450.47v-.08a4.58,4.58,0,0,0-4.58-4.5H516.85a4.58,4.58,0,0,0-4.58,4.58H623.05Z"/><path class="cls-8" d="M570.41,411.16H393.08a5.92,5.92,0,0,1-5.91-5.91V292.59a5.92,5.92,0,0,1,5.91-5.91H570.41a2.1,2.1,0,0,1,2.09,2.09v120.3A2.1,2.1,0,0,1,570.41,411.16Z"/><rect class="cls-8" x="457.24" y="396.74" width="34.71" height="53.73"/><rect class="cls-9" x="563.36" y="286.69" width="9.14" height="124.47" rx="2.09"/><path class="cls-9" d="M457.1,387.07c.14,0,.29,14.19.33,31.7s0,31.7-.19,31.7-.29-14.19-.33-31.7S457,387.07,457.1,387.07Z"/><path class="cls-9" d="M492.31,386.25c.14,0,.18,14.22.08,31.77s-.3,31.77-.44,31.77-.18-14.23-.08-31.78S492.16,386.25,492.31,386.25Z"/><path class="cls-9" d="M551.25,400.33a.81.81,0,0,1,0-.22v-3c0-2.1,0-5.08-.09-8.83l.17.17-39.33.09.26-.26h0v12l-.25-.25,28,.11,8.25.07h0l-8.2.08-28.22.11h-.26V388.29h0l.26-.26,39.33.1h.16v.16c0,3.79-.07,6.81-.09,8.93v2.34C551.28,399.82,551.27,400.07,551.25,400.33Z"/><path class="cls-9" d="M487.56,380.4c0,.14-6.44.26-14.38.26s-14.39-.12-14.39-.26,6.44-.26,14.39-.26S487.56,380.26,487.56,380.4Z"/></g><g id="freepik--device-1--inject-67"><path class="cls-8" d="M356.31,450.47H216.87l18-97.87a7.31,7.31,0,0,1,7.19-6h125.3a7.31,7.31,0,0,1,7.31,7.31,7.16,7.16,0,0,1-.13,1.38Z"/><path class="cls-8" d="M216.87,450.47H164l.21-.16a28.62,28.62,0,0,1,16.31-5.71l37.82-1.11Z"/><path class="cls-9" d="M250.36,346.75a6.25,6.25,0,0,0-1.13-.08,6.84,6.84,0,0,0-3.1.77,9.44,9.44,0,0,0-3.71,3.38,18,18,0,0,0-2.28,6.32c-.45,2.48-.86,5.23-1.35,8.16s-1,6.06-1.66,9.35c-1.21,6.58-2.65,13.79-4.22,21.35-3.15,15.11-6.06,28.78-8,38.71-1,5-1.7,9-2.2,11.77-.24,1.36-.44,2.43-.58,3.2l-.16.83a1,1,0,0,1-.08.29,1.41,1.41,0,0,1,0-.29,3.82,3.82,0,0,1,.12-.84c.11-.78.28-1.85.48-3.22.44-2.8,1.13-6.84,2-11.81,1.82-9.95,4.67-23.64,7.82-38.75,1.57-7.55,3-14.76,4.26-21.33.63-3.28,1.18-6.41,1.71-9.33s.93-5.66,1.41-8.16a18,18,0,0,1,2.39-6.41,9.69,9.69,0,0,1,3.88-3.41,6.74,6.74,0,0,1,3.18-.69A3.89,3.89,0,0,1,250.36,346.75Z"/><path class="cls-5" d="M309.25,396.34a6.74,6.74,0,1,1-6.74-6.74h0A6.74,6.74,0,0,1,309.25,396.34Z"/></g><g id="freepik--Desk--inject-67"><path class="cls-9" d="M718.3,450.47c0,.14-153.71.26-343.28.26s-343.32-.12-343.32-.26,153.68-.26,343.32-.26S718.3,450.33,718.3,450.47Z"/></g><g id="freepik--Plant--inject-67"><path class="cls-12" d="M345.71,425.06c-7.17-4.16-11-13.83-11.3-21.75s3-16.18,9.51-20.72c6.84-4.78,16.58-4.7,23.61-.2a24.58,24.58,0,0,1,10.82,21.34A28.31,28.31,0,0,1,366.77,425"/><path class="cls-2" d="M357.16,425.82A9.26,9.26,0,0,1,357,424c0-1.29-.09-2.95-.14-4.94-.11-4.17-.27-9.92-.55-16.28s-.63-12.11-.89-16.27c-.11-2-.21-3.64-.29-4.93a11.06,11.06,0,0,1,0-1.82,9.13,9.13,0,0,1,.29,1.8c.14,1.15.32,2.83.51,4.91.38,4.16.8,9.91,1.08,16.28s.37,12.13.35,16.31c0,2.09,0,3.78-.07,4.94A9.24,9.24,0,0,1,357.16,425.82Z"/><path class="cls-9" d="M336.54,401.51c0,.19-1.16.25-2.56.13s-2.52-.36-2.5-.54,1.16-.24,2.56-.13S336.55,401.33,336.54,401.51Z"/><path class="cls-9" d="M336.93,394.41c-.08.17-1.06-.1-2.21-.61s-2-1.05-1.93-1.22,1.06.1,2.21.61S337,394.24,336.93,394.41Z"/><path class="cls-9" d="M340.58,389.14c-.09.15-1.2-.37-2.36-1.33s-1.87-1.95-1.74-2.07,1,.63,2.17,1.55S340.68,389,340.58,389.14Z"/><path class="cls-9" d="M344.26,384.16c-.17.08-.7-.75-1.19-1.85s-.74-2.06-.57-2.13.7.75,1.19,1.85S344.43,384.09,344.26,384.16Z"/><path class="cls-9" d="M350,380.63c-.17.08-.74-.81-1.12-2s-.41-2.28-.23-2.31.5.93.87,2.11S350.2,380.55,350,380.63Z"/><path class="cls-9" d="M359.65,376.65c.18.06.07.82-.24,1.69s-.69,1.52-.87,1.46-.07-.82.24-1.69S359.48,376.59,359.65,376.65Z"/><path class="cls-9" d="M366.79,379.71c.13.14-.33.77-1,1.41s-1.35,1.05-1.48.91.33-.77,1-1.4S366.67,379.58,366.79,379.71Z"/><path class="cls-9" d="M373.08,383.77c.1.16-.46.72-1.25,1.25s-1.52.85-1.62.7.45-.72,1.24-1.25S373,383.62,373.08,383.77Z"/><path class="cls-9" d="M377.54,389.82c.07.18-.81.71-2,1.21s-2.15.76-2.23.58.81-.71,2-1.2S377.47,389.65,377.54,389.82Z"/><path class="cls-9" d="M379.3,396.42c0,.19-.88.45-2,.59s-2.06.1-2.09-.08.88-.45,2-.59S379.27,396.24,379.3,396.42Z"/><path class="cls-9" d="M380.21,404.55c-.07.17-1-.08-2.13-.56s-1.94-1-1.86-1.18,1,.08,2.13.56S380.28,404.38,380.21,404.55Z"/><path class="cls-9" d="M379.41,411.52c-.06.17-1.27-.12-2.53-.95s-2-1.81-1.88-1.93,1.05.6,2.25,1.37S379.47,411.34,379.41,411.52Z"/><path class="cls-9" d="M375.78,417.87c-.11.14-1.07-.42-2-1.42s-1.41-2-1.26-2.09.87.69,1.76,1.63S375.89,417.72,375.78,417.87Z"/><path class="cls-9" d="M341.31,418.61c.08.17-.92.86-2.25,1.55a7.09,7.09,0,0,1-2.57,1,6.35,6.35,0,0,1,2.26-1.55C340.08,418.92,341.22,418.45,341.31,418.61Z"/><path class="cls-9" d="M338.16,412.87c.08.17-.73.7-1.8,1.19s-2,.74-2.09.58.73-.71,1.81-1.19S338.08,412.7,338.16,412.87Z"/><path class="cls-9" d="M335.85,407.79c0,.18-1,.47-2.23.65s-2.29.18-2.31,0,1-.48,2.22-.65S335.82,407.6,335.85,407.79Z"/><path class="cls-9" d="M343.44,405c.05.17-.92.62-2.21.77s-2.35-.08-2.33-.26,1-.27,2.25-.41S343.38,404.8,343.44,405Z"/><path class="cls-9" d="M349.74,398.71c.06.17-.71.56-1.76.67s-1.87-.13-1.85-.31.82-.27,1.79-.36S349.69,398.53,349.74,398.71Z"/><path class="cls-9" d="M351,393.68c-.06.18-.9.05-1.87-.29s-1.71-.75-1.65-.92.9-.05,1.87.29S351,393.51,351,393.68Z"/><path class="cls-9" d="M353.26,388.6c-.13.13-.7-.25-1.11-1s-.45-1.4-.28-1.45.49.48.86,1.11S353.4,388.47,353.26,388.6Z"/><path class="cls-9" d="M350.47,409.41c0,.18-.68.51-1.61.74a5.66,5.66,0,0,1-1.36.2l-.14-.39h.43s-.06.19-.26.34l-.13-.39a5.88,5.88,0,0,1,1.3-.45C349.63,409.27,350.43,409.23,350.47,409.41Z"/><path class="cls-9" d="M351.77,418.32c.07.18-.85.7-2.06,1.17s-2.24.72-2.31.55.86-.7,2.06-1.17S351.7,418.15,351.77,418.32Z"/><path class="cls-9" d="M344.65,414.36c.06.18-.56.55-1.38.83s-1.53.36-1.59.18.56-.54,1.38-.82S344.59,414.19,344.65,414.36Z"/><path class="cls-9" d="M345.19,396.23c0,.17-1.11.07-2.35-.37s-2.14-1-2.06-1.2,1.08.14,2.28.56S345.24,396,345.19,396.23Z"/><path class="cls-9" d="M362.43,394.25c.1.16-.5.74-1.35,1.3s-1.61.88-1.71.73.5-.74,1.34-1.3S362.33,394.1,362.43,394.25Z"/><path class="cls-9" d="M363.37,403.2c0,.18-.6.47-1.42.64s-1.51.16-1.55,0,.6-.47,1.42-.64S363.33,403,363.37,403.2Z"/><path class="cls-9" d="M364.46,413.26c-.08.17-1-.08-2-.57s-1.84-1-1.76-1.18,1,.08,2,.57S364.54,413.1,364.46,413.26Z"/><path class="cls-9" d="M362.15,423.06c-.14.12-.73-.37-1.32-1.08s-.95-1.39-.81-1.51.74.37,1.33,1.08S362.3,422.94,362.15,423.06Z"/><path class="cls-9" d="M361.68,387.66c.12.15-.28.64-.95,1s-1.3.35-1.35.18.44-.48,1.05-.78S361.57,387.51,361.68,387.66Z"/><path class="cls-9" d="M370.13,396.69c.06.17-.72.6-1.79.75s-1.94-.05-1.93-.23.84-.3,1.84-.44S370.07,396.51,370.13,396.69Z"/><path class="cls-9" d="M368.45,388.59c.08.16-.7.71-1.8,1.07s-2.06.35-2.08.17.83-.48,1.87-.82S368.36,388.42,368.45,388.59Z"/><path class="cls-9" d="M372,409.24c0,.18-1.33.3-2.93,0a5.72,5.72,0,0,1-2.74-1,10.85,10.85,0,0,1,2.86.37C370.73,408.88,372,409.05,372,409.24Z"/><path class="cls-9" d="M368.83,421c-.11.14-1.08-.43-2.06-1.41s-1.55-2-1.4-2.07.93.65,1.88,1.59S369,420.86,368.83,421Z"/><path class="cls-2" d="M355,379a30.14,30.14,0,0,0-5.89,4.66,28.78,28.78,0,0,0-7.34,16.22,36.4,36.4,0,0,0,.44,9.94,78,78,0,0,0,1.86,8c.65,2.25,1.24,4,1.64,5.29a13.83,13.83,0,0,1,.57,2,10.4,10.4,0,0,1-.82-1.87c-.47-1.22-1.13-3-1.84-5.24a70.86,70.86,0,0,1-2-8,35.5,35.5,0,0,1-.5-10.13,28.2,28.2,0,0,1,7.67-16.47,20.91,20.91,0,0,1,4.39-3.44,14.39,14.39,0,0,1,1.35-.7A1.66,1.66,0,0,1,355,379Z"/><path class="cls-2" d="M364.2,425.49a72.23,72.23,0,0,0,3-7.22,41,41,0,0,0,1.8-18.56,34.94,34.94,0,0,0-2.87-9.9,23.31,23.31,0,0,0-4.88-6.8,17.75,17.75,0,0,0-4.78-3c-1.24-.52-2-.64-2-.7a1.69,1.69,0,0,1,.55,0,8.74,8.74,0,0,1,1.52.41,16.39,16.39,0,0,1,5,2.91,23.07,23.07,0,0,1,5.12,6.88,34.27,34.27,0,0,1,3,10.08,39.45,39.45,0,0,1-2,18.81c-.38,1.16-.87,2.15-1.23,3.05a18.91,18.91,0,0,1-1.12,2.22A13,13,0,0,1,364.2,425.49Z"/><polygon class="cls-9" points="338.16 423.9 375.21 423.9 375.44 431.32 338.16 431.32 338.16 423.9"/><polygon class="cls-9" points="341.31 427.61 343.44 450.25 370.53 450.25 372.7 427.86 341.31 427.61"/><path class="cls-8" d="M375.44,431.41c0,.18-8.34.33-18.63.33s-18.64-.15-18.64-.33,8.34-.34,18.64-.34S375.44,431.22,375.44,431.41Z"/><path class="cls-8" d="M371.68,438.3a5.83,5.83,0,0,1-.8,1.42,20.2,20.2,0,0,1-2.87,3.39l-.17.16-.17-.17a53.61,53.61,0,0,0-7.26-6.36h.41l-3.22,2.83-3.81,3.31-.21.19-.21-.18c-2.31-1.94-4.4-3.71-6.19-5.2h.36c-1.27,1.56-2.35,2.87-3.2,3.9a9.62,9.62,0,0,1-1.25,1.38,9.32,9.32,0,0,1,1-1.55l3-4,.15-.21.21.17,6.28,5.09h-.43l3.8-3.33,3.23-2.81.19-.17.22.15a46.82,46.82,0,0,1,7.22,6.56h-.34A38.32,38.32,0,0,0,371.68,438.3Z"/></g><path class="cls-9" d="M489.61,281.37a1.22,1.22,0,0,1,0-.27v-.8c0-.75,0-1.78-.05-3.09,0-2.73-.05-6.6-.09-11.37,0-9.64,0-22.88-.07-37.51V208.75l.24.24-24.1-.09-6.9-.07H456.8a3.32,3.32,0,0,1-.63,0,3.31,3.31,0,0,1,.63,0h1.84l6.9-.07,24.1-.09h.24v19.82c0,14.63-.06,27.87-.08,37.51,0,4.77-.06,8.64-.08,11.37v3.89Z"/><path class="cls-9" d="M304.6,221.87c.15,0,.26,26.85.26,60s-.11,60-.26,60-.26-26.84-.26-60S304.46,221.87,304.6,221.87Z"/><path class="cls-9" d="M308,341.79a3.38,3.38,0,1,1-3.39-3.37h0a3.37,3.37,0,0,1,3.38,3.36Z"/><path class="cls-9" d="M493,281.37a3.37,3.37,0,1,1-3.37-3.37h0A3.37,3.37,0,0,1,493,281.37Z"/><rect class="cls-9" x="262.4" y="101.5" width="208.34" height="121.4"/><path class="cls-4" d="M278.7,216.79c-.11,0-.2-24.83-.2-55.44s.09-55.45.2-55.45.2,24.82.2,55.45S278.81,216.79,278.7,216.79Z"/><path class="cls-4" d="M278.7,216.91c-.06,0-.09,0-.12-.16h0c-.05-.33-.06-1.33-.08-4.31,0-2.79-.05-6.79-.07-11.88,0-10.47-.06-24.39-.06-39.2s0-28.74.06-39.21c0-5.09,0-9.09.07-11.88a37.29,37.29,0,0,1,.08-4.31h0c0-.16.06-.16.12-.16s.09,0,.11.16h0c.05.33.06,1.33.08,4.31,0,2.79.05,6.79.06,11.88,0,10.48.06,24.4.06,39.21s0,28.72-.06,39.2c0,5.09,0,9.09-.06,11.88a37.29,37.29,0,0,1-.08,4.31h0C278.79,216.91,278.75,216.91,278.7,216.91Zm0-98.8c-.05,10.21-.08,25.86-.08,43.24s0,33,.08,43.23c0-10.2.07-25.86.07-43.23S278.74,128.32,278.7,118.11Z"/><path class="cls-4" d="M274.41,110.58a29.49,29.49,0,0,1-6.9,0A29.49,29.49,0,0,1,274.41,110.58Z"/><path class="cls-4" d="M271,110.9c-3.57,0-3.57-.21-3.57-.32s0-.32,3.57-.32,3.58.21,3.58.32S274.54,110.9,271,110.9Zm-2.69-.32c.57,0,1.47.07,2.69.07a26.78,26.78,0,0,0,2.69-.07c-.56,0-1.47-.07-2.69-.07s-2.16,0-2.73.07Z"/><path class="cls-4" d="M274.41,117.89a29.49,29.49,0,0,1-6.9,0A29.49,29.49,0,0,1,274.41,117.89Z"/><path class="cls-4" d="M271,118.21c-3.57,0-3.57-.21-3.57-.32s0-.33,3.57-.33,3.58.21,3.58.33S274.54,118.21,271,118.21Zm-2.69-.32c.57,0,1.47.07,2.69.07a26.78,26.78,0,0,0,2.69-.07c-.56,0-1.47-.08-2.69-.08s-2.16,0-2.73.08Z"/><path class="cls-4" d="M274.41,125.19a29.49,29.49,0,0,1-6.9,0A29.49,29.49,0,0,1,274.41,125.19Z"/><path class="cls-4" d="M271,125.52c-3.57,0-3.57-.21-3.57-.33s0-.32,3.57-.32,3.58.21,3.58.32S274.54,125.52,271,125.52Zm-2.68-.33c.56,0,1.46.08,2.68.08a23.45,23.45,0,0,0,2.69-.08c-.56,0-1.47-.07-2.69-.07s-2.16,0-2.72.07Z"/><path class="cls-4" d="M274.41,132.5a29.49,29.49,0,0,1-6.9,0A29.49,29.49,0,0,1,274.41,132.5Z"/><path class="cls-4" d="M271,132.82c-3.57,0-3.57-.21-3.57-.32s0-.33,3.57-.33,3.58.22,3.58.33S274.54,132.82,271,132.82Zm-2.68-.32c.57,0,1.47.07,2.68.07s2.12,0,2.69-.07c-.58,0-1.5-.08-2.69-.08s-2.14,0-2.72.08Z"/><path class="cls-4" d="M274.41,139.81a29.49,29.49,0,0,1-6.9,0A29.49,29.49,0,0,1,274.41,139.81Z"/><path class="cls-4" d="M271,140.13c-3.57,0-3.57-.21-3.57-.32s0-.33,3.57-.33,3.58.21,3.58.33S274.54,140.13,271,140.13Zm-2.68-.32c.56,0,1.46.07,2.68.07a26.78,26.78,0,0,0,2.69-.07c-.56,0-1.47-.08-2.69-.08s-2.16,0-2.72.08Z"/><path class="cls-4" d="M274.41,147.11a29.49,29.49,0,0,1-6.9,0A29.49,29.49,0,0,1,274.41,147.11Z"/><path class="cls-4" d="M271,147.44c-3.57,0-3.57-.21-3.57-.33s0-.32,3.57-.32,3.58.21,3.58.32S274.54,147.44,271,147.44Zm-2.68-.33c.56,0,1.46.08,2.68.08a23.45,23.45,0,0,0,2.69-.08c-.56,0-1.47-.07-2.69-.07s-2.16,0-2.72.07Z"/><path class="cls-4" d="M274.41,154.42a29.49,29.49,0,0,1-6.9,0A29.49,29.49,0,0,1,274.41,154.42Z"/><path class="cls-4" d="M271,154.74c-3.57,0-3.57-.21-3.57-.32s0-.33,3.57-.33,3.58.22,3.58.33S274.54,154.74,271,154.74Zm-2.69-.32c.57,0,1.47.07,2.69.07a26.78,26.78,0,0,0,2.69-.07c-.56,0-1.47-.08-2.69-.08s-2.16,0-2.73.08Z"/><path class="cls-4" d="M274.41,161.73a31.83,31.83,0,0,1-6.9,0A29.49,29.49,0,0,1,274.41,161.73Z"/><path class="cls-4" d="M271,162.05c-3.57,0-3.57-.21-3.57-.32s0-.33,3.57-.33,3.58.21,3.58.33S274.54,162.05,271,162.05Zm-2.68-.32c.56,0,1.46.07,2.68.07a26.78,26.78,0,0,0,2.69-.07c-.56,0-1.47-.08-2.69-.08s-2.16,0-2.72.08Z"/><path class="cls-4" d="M274.41,169a29.49,29.49,0,0,1-6.9,0A29.49,29.49,0,0,1,274.41,169Z"/><path class="cls-4" d="M271,169.36c-3.57,0-3.57-.22-3.57-.33s0-.32,3.57-.32,3.58.21,3.58.32S274.54,169.36,271,169.36Zm-2.68-.33c.57,0,1.47.08,2.68.08a23.64,23.64,0,0,0,2.69-.08c-.58,0-1.5-.07-2.69-.07s-2.14,0-2.72,0Z"/><path class="cls-4" d="M274.41,176.34a29.49,29.49,0,0,1-6.9,0A29.49,29.49,0,0,1,274.41,176.34Z"/><path class="cls-4" d="M271,176.66c-3.57,0-3.57-.21-3.57-.32s0-.33,3.57-.33,3.58.21,3.58.33S274.54,176.66,271,176.66Zm-2.68-.32c.58,0,1.5.07,2.68.07s2.11,0,2.69-.07c-.57,0-1.47-.08-2.69-.08s-2.15,0-2.72.08Z"/><path class="cls-4" d="M274.41,183.64a29.49,29.49,0,0,1-6.9,0A31.83,31.83,0,0,1,274.41,183.64Z"/><path class="cls-4" d="M271,184c-3.57,0-3.57-.21-3.57-.33s0-.32,3.57-.32,3.58.21,3.58.32S274.54,184,271,184Zm-2.68-.33c.56.05,1.46.08,2.68.08a23.45,23.45,0,0,0,2.69-.08c-.56,0-1.47-.07-2.69-.07s-2.16,0-2.72,0Z"/><path class="cls-4" d="M274.41,191a29.49,29.49,0,0,1-6.9,0A29.49,29.49,0,0,1,274.41,191Z"/><path class="cls-4" d="M271,191.28c-3.57,0-3.57-.22-3.57-.33s0-.32,3.57-.32,3.58.21,3.58.32S274.54,191.28,271,191.28Zm-2.68-.33c.57,0,1.47.08,2.68.08a23.64,23.64,0,0,0,2.69-.08c-.58,0-1.5-.07-2.69-.07a20.59,20.59,0,0,0-2.72.12Z"/><path class="cls-4" d="M274.41,198.26a29.49,29.49,0,0,1-6.9,0A29.49,29.49,0,0,1,274.41,198.26Z"/><path class="cls-4" d="M271,198.58c-3.57,0-3.57-.21-3.57-.32s0-.33,3.57-.33,3.58.21,3.58.33S274.54,198.58,271,198.58Zm-2.69-.32c.57,0,1.47.07,2.69.07a26.78,26.78,0,0,0,2.69-.07c-.56,0-1.47-.08-2.69-.08s-2.16,0-2.73.08Z"/><path class="cls-4" d="M274.41,205.56a29.49,29.49,0,0,1-6.9,0A29.49,29.49,0,0,1,274.41,205.56Z"/><path class="cls-4" d="M271,205.89c-3.57,0-3.57-.21-3.57-.33s0-.32,3.57-.32,3.58.21,3.58.32S274.54,205.89,271,205.89Zm-2.68-.33c.56,0,1.46.08,2.68.08a23.45,23.45,0,0,0,2.69-.08c-.56,0-1.47-.07-2.69-.07s-2.16,0-2.72.07Z"/><path class="cls-4" d="M274.41,212.87a29.49,29.49,0,0,1-6.9,0A29.49,29.49,0,0,1,274.41,212.87Z"/><path class="cls-4" d="M271,213.2c-3.57,0-3.57-.22-3.57-.33s0-.32,3.57-.32,3.58.21,3.58.32S274.54,213.2,271,213.2Zm-2.69-.33c.57,0,1.47.08,2.69.08a23.45,23.45,0,0,0,2.69-.08c-.56,0-1.47-.07-2.69-.07s-2.16,0-2.73.07Z"/><path class="cls-12" d="M302.07,110.15c0,.11-4,.2-8.95.2s-9-.09-9-.2,4-.2,9-.2A84.28,84.28,0,0,1,302.07,110.15Z"/><path class="cls-12" d="M293.12,110.47h-6.34c-2.74-.07-2.74-.11-2.74-.27s0-.21,2.74-.27c1.69,0,3.94-.06,6.34-.06s4.64,0,6.33.06c2.74.06,2.74.11,2.74.27s0,.2-2.74.27C297.76,110.45,295.51,110.47,293.12,110.47Zm-7-.32c1.55,0,4,.07,7,.07s5.43,0,7-.07c-1.56,0-4-.08-7-.08s-5.44,0-7,.08Z"/><path class="cls-12" d="M302.07,212.87c0,.11-4,.2-8.95.2s-9-.09-9-.2,4-.2,9-.2S302.07,212.76,302.07,212.87Z"/><path class="cls-12" d="M293.12,213.2c-2.4,0-4.65,0-6.34-.06-2.74-.06-2.74-.11-2.74-.27s0-.2,2.74-.27h12.67c2.74.07,2.74.11,2.74.27s0,.21-2.74.27C297.76,213.17,295.51,213.2,293.12,213.2Zm-7-.33c1.55,0,4,.08,7,.08s5.43,0,7-.08c-1.56,0-4-.07-7-.07s-5.44,0-7,.07Z"/><path class="cls-12" d="M327,125.19c0,.11-7.5.2-16.75.2s-16.76-.09-16.76-.2,7.5-.2,16.76-.2S327,125.08,327,125.19Z"/><path class="cls-12" d="M310.26,125.52c-4.48,0-8.69,0-11.85-.06-5-.06-5-.1-5-.27s0-.2,5-.26c3.16,0,7.37-.06,11.85-.06s8.68,0,11.84.06c5,.06,5,.09,5,.26s0,.21-5,.27C318.94,125.5,314.73,125.52,310.26,125.52Zm-13.06-.33c2.92,0,7.43.08,13.06.08s10.13,0,13.05-.08c-2.92,0-7.43-.07-13.05-.07S300.12,125.15,297.2,125.19Z"/><path class="cls-4" d="M365.75,125.19c0,.11-7.5.2-16.75.2s-16.76-.09-16.76-.2,7.5-.2,16.76-.2S365.75,125.08,365.75,125.19Z"/><path class="cls-4" d="M349,125.52c-4.48,0-8.69,0-11.85-.06-5-.06-5-.1-5-.27s0-.2,5-.26c3.16,0,7.37-.06,11.85-.06s8.68,0,11.84.06c5,.06,5,.09,5,.26s0,.21-5,.27C357.68,125.5,353.47,125.52,349,125.52Zm-13.06-.33c2.92,0,7.43.08,13.06.08s10.13,0,13.05-.08c-2.92,0-7.43-.07-13.05-.07S338.86,125.15,335.94,125.19Z"/><path class="cls-4" d="M350.94,132.5c0,.11-11.05.2-24.69.2s-24.68-.09-24.68-.2,11.05-.2,24.68-.2S350.94,132.39,350.94,132.5Z"/><path class="cls-4" d="M326.25,132.82H308.8c-7.36-.06-7.36-.1-7.36-.27s0-.21,7.36-.27c4.66,0,10.86-.06,17.45-.06s12.79,0,17.46.06c7.36.06,7.36.09,7.36.27s0,.21-7.36.27C339.05,132.8,332.85,132.82,326.25,132.82ZM307,132.5c4.29,0,10.94.07,19.24.07s14.95,0,19.24-.07c-4.29,0-10.93-.08-19.24-.08S311.3,132.46,307,132.5Z"/><path class="cls-4" d="M350.94,139.81c0,.11-11.05.2-24.69.2s-24.68-.09-24.68-.2,11.05-.2,24.68-.2S350.94,139.7,350.94,139.81Z"/><path class="cls-4" d="M326.25,140.13c-6.59,0-12.79,0-17.45-.06-7.36-.06-7.36-.09-7.36-.26s0-.21,7.36-.27c4.66,0,10.86-.06,17.45-.06s12.8,0,17.46.06c7.36.06,7.36.09,7.36.27s0,.2-7.36.26C339.05,140.11,332.85,140.13,326.25,140.13ZM307,139.81c4.29,0,10.93.07,19.22.07s14.94,0,19.23-.07c-4.29-.05-10.93-.08-19.23-.08S311.32,139.76,307,139.81Z"/><path class="cls-4" d="M384.93,161.73c0,.11-11.06.19-24.69.19s-24.69-.08-24.69-.19,11.05-.2,24.69-.2S384.93,161.62,384.93,161.73Z"/><path class="cls-4" d="M360.24,162.05c-6.59,0-12.79,0-17.46-.06-7.35-.06-7.35-.09-7.35-.26s0-.21,7.35-.27c4.66,0,10.87-.06,17.46-.06s12.8,0,17.46.06c7.35.06,7.35.09,7.35.27s0,.2-7.35.26C373,162,366.83,162.05,360.24,162.05ZM341,161.73c4.3,0,10.94.07,19.23.07s14.94,0,19.23-.07c-4.29,0-10.94-.08-19.23-.08S345.31,161.68,341,161.73Z"/><path class="cls-4" d="M370.26,147.11c0,.11-11.05.2-24.68.2s-24.69-.09-24.69-.2,11.05-.2,24.69-.2S370.26,147,370.26,147.11Z"/><path class="cls-4" d="M345.58,147.44c-6.6,0-12.8,0-17.46-.06-7.36-.06-7.36-.09-7.36-.27s0-.2,7.36-.26c4.66,0,10.86-.06,17.46-.06s12.79,0,17.45.06c7.36.06,7.36.09,7.36.26s0,.21-7.36.27C358.37,147.42,352.17,147.44,345.58,147.44Zm-19.23-.33c4.29,0,10.93.08,19.23.08s14.93,0,19.22-.08c-4.29,0-10.93-.07-19.22-.07s-14.94,0-19.23.07Z"/><path class="cls-4" d="M430.6,147.11c0,.11-11.05.2-24.69.2s-24.69-.09-24.69-.2,11.06-.2,24.69-.2S430.6,147,430.6,147.11Z"/><path class="cls-4" d="M405.91,147.44c-6.59,0-12.79,0-17.46-.06-7.35-.06-7.35-.09-7.35-.27s0-.2,7.35-.26c4.67,0,10.87-.06,17.46-.06s12.79,0,17.46.06c7.35.06,7.35.09,7.35.26s0,.21-7.35.27C418.71,147.42,412.51,147.44,405.91,147.44Zm-19.22-.33c4.29,0,10.93.08,19.22.08s14.94,0,19.23-.08c-4.29,0-10.94-.07-19.23-.07S391,147.07,386.69,147.11Z"/><path class="cls-4" d="M409.62,132.5c0,.11-11.06.2-24.69.2s-24.69-.09-24.69-.2,11.05-.2,24.69-.2S409.62,132.39,409.62,132.5Z"/><path class="cls-4" d="M384.93,132.82H367.47c-7.35-.06-7.35-.1-7.35-.27s0-.21,7.35-.27c4.67,0,10.87-.06,17.46-.06s12.79,0,17.46.06c7.35.06,7.35.09,7.35.27s0,.21-7.35.27C397.72,132.8,391.52,132.82,384.93,132.82Zm-19.24-.32c4.29,0,10.94.07,19.24.07s14.95,0,19.24-.07c-4.29,0-10.94-.08-19.24-.08S370,132.46,365.69,132.5Z"/><path class="cls-4" d="M443.72,161.73c0,.11-11.05.19-24.68.19s-24.69-.08-24.69-.19,11-.2,24.69-.2S443.72,161.62,443.72,161.73Z"/><path class="cls-4" d="M419,162.05c-6.6,0-12.8,0-17.46-.06-7.36-.06-7.36-.09-7.36-.26s0-.21,7.36-.27c4.66,0,10.86-.06,17.46-.06s12.79,0,17.45.06c7.36.06,7.36.09,7.36.27s0,.2-7.36.26C431.83,162,425.63,162.05,419,162.05Zm-19.23-.32c4.29,0,10.93.07,19.23.07s14.93,0,19.22-.07c-4.29,0-10.93-.08-19.22-.08s-14.9,0-19.19.08Z"/><path class="cls-8" d="M436.91,139.81c0,.11-17.16.2-38.33.2s-38.34-.09-38.34-.2,17.16-.2,38.34-.2S436.91,139.7,436.91,139.81Z"/><path class="cls-8" d="M398.58,140.13c-10.24,0-19.87,0-27.11-.06-8.4,0-10.59-.07-11.15-.15h0c-.16,0-.16-.06-.16-.1s0-.08.15-.11h0c.57-.08,2.75-.11,11.16-.15,7.24,0,16.86-.06,27.11-.06s19.86,0,27.1.06c8.41,0,10.59.07,11.16.15h0c.16,0,.16.06.16.11s0,.07-.16.1h0c-.57.08-2.76.11-11.16.15C418.44,140.11,408.81,140.13,398.58,140.13Zm-29.91-.32c7.06,0,17.9.07,29.91.07s22.84,0,29.9-.07c-7.06-.05-17.9-.08-29.9-.08s-22.85,0-29.91.08Z"/><path class="cls-4" d="M302.07,117.89c0,.11-4,.2-8.95.2s-9-.09-9-.2,4-.2,9-.2S302.07,117.78,302.07,117.89Z"/><path class="cls-4" d="M293.12,118.21c-2.4,0-4.65,0-6.34-.06-2.74-.06-2.74-.11-2.74-.26s0-.21,2.74-.27c1.69,0,3.94-.06,6.34-.06s4.64,0,6.33.06c2.74.06,2.74.11,2.74.27s0,.2-2.74.26C297.76,118.19,295.51,118.21,293.12,118.21Zm-7-.32c1.55,0,4,.07,7,.07s5.43,0,7-.07c-1.56,0-4-.08-7-.08s-5.44,0-7,.08Z"/><path class="cls-4" d="M302.07,205.56c0,.11-4,.2-8.95.2s-9-.09-9-.2,4-.2,9-.2S302.07,205.45,302.07,205.56Z"/><path class="cls-4" d="M293.12,205.89c-2.4,0-4.65,0-6.34-.06-2.74-.06-2.74-.11-2.74-.27s0-.2,2.74-.26c1.69,0,3.94-.06,6.34-.06s4.64,0,6.33.06c2.74.06,2.74.11,2.74.26s0,.21-2.74.27C297.76,205.87,295.51,205.89,293.12,205.89Zm-7-.33c1.56.05,4,.08,7,.08s5.42,0,7-.08c-1.56,0-4-.07-7-.07s-5.43,0-7,.07Z"/><path class="cls-4" d="M310.94,147.11c0,.11-4,.2-8.95.2s-9-.09-9-.2,4-.2,9-.2S310.94,147,310.94,147.11Z"/><path class="cls-4" d="M302,147.44c-2.4,0-4.65,0-6.34-.06-2.74-.06-2.74-.11-2.74-.27s0-.2,2.74-.26c1.7,0,4-.06,6.34-.06s4.64,0,6.33.06c2.75.06,2.75.1,2.75.26s0,.21-2.75.27C306.63,147.42,304.38,147.44,302,147.44Zm-7-.33c1.56,0,4,.08,7,.08s5.42,0,7-.08c-1.56,0-4-.07-7-.07S296.56,147.07,295,147.11Z"/><path class="cls-12" d="M454.46,147.11c0,.11-4,.2-9,.2s-8.95-.09-8.95-.2,4-.2,8.95-.2S454.46,147,454.46,147.11Z"/><path class="cls-12" d="M445.5,147.44c-2.39,0-4.64,0-6.33-.06-2.75-.06-2.75-.11-2.75-.27s0-.2,2.75-.26c1.69,0,3.94-.06,6.33-.06s4.64,0,6.34.06c2.74.06,2.74.1,2.74.26s0,.21-2.74.27C450.14,147.42,447.9,147.44,445.5,147.44Zm-7-.33c1.56,0,4,.08,7,.08s5.43,0,7-.08c-1.56,0-4-.07-7-.07s-5.42,0-7,.07Z"/><path class="cls-12" d="M327,176.3c0,.11-7.5.19-16.75.19s-16.76-.08-16.76-.19,7.5-.2,16.76-.2S327,176.19,327,176.3Z"/><path class="cls-12" d="M310.26,176.62c-4.48,0-8.68,0-11.85-.06-5-.06-5-.09-5-.26s0-.21,5-.27c3.16,0,7.37-.06,11.85-.06s8.68,0,11.84.06c5,.06,5,.09,5,.27s0,.2-5,.26C318.93,176.6,314.73,176.62,310.26,176.62Zm-13.07-.32c2.92,0,7.44.07,13.07.07s10.14,0,13.06-.07c-2.92-.05-7.44-.08-13.06-.08s-10.15,0-13.07.08Z"/><path class="cls-4" d="M365.75,176.3c0,.11-7.5.19-16.75.19s-16.76-.08-16.76-.19,7.5-.2,16.76-.2S365.75,176.19,365.75,176.3Z"/><path class="cls-4" d="M349,176.62c-4.48,0-8.68,0-11.85-.06-5-.06-5-.09-5-.26s0-.21,5-.27c3.16,0,7.37-.06,11.85-.06s8.68,0,11.84.06c5,.06,5,.09,5,.27s0,.2-5,.26C357.67,176.6,353.47,176.62,349,176.62Zm-13.07-.32c2.92,0,7.44.07,13.07.07s10.14,0,13.06-.07c-2.92-.05-7.44-.08-13.06-.08s-10.15,0-13.07.08Z"/><path class="cls-4" d="M350.94,183.6c0,.11-11.05.2-24.69.2s-24.68-.09-24.68-.2,11.05-.2,24.68-.2S350.94,183.49,350.94,183.6Z"/><path class="cls-4" d="M326.25,183.93c-6.59,0-12.79,0-17.45-.06-7.36-.06-7.36-.09-7.36-.27s0-.2,7.36-.26c4.66,0,10.86-.06,17.45-.06s12.8,0,17.46.06c7.36.06,7.36.09,7.36.26s0,.21-7.36.27C339.05,183.91,332.85,183.93,326.25,183.93ZM307,183.6c4.29,0,10.93.08,19.22.08s14.94,0,19.23-.08c-4.29,0-10.93-.07-19.23-.07S311.32,183.56,307,183.6Z"/><path class="cls-4" d="M350.94,190.91c0,.11-11.05.2-24.69.2s-24.68-.09-24.68-.2,11.05-.2,24.68-.2S350.94,190.8,350.94,190.91Z"/><path class="cls-4" d="M326.25,191.23c-6.59,0-12.79,0-17.45-.06-7.36-.06-7.36-.09-7.36-.26s0-.21,7.36-.27c4.66,0,10.86-.06,17.45-.06s12.79,0,17.46.06c7.36.06,7.36.09,7.36.27s0,.2-7.36.26C339.05,191.21,332.85,191.23,326.25,191.23ZM307,190.91c4.29,0,10.94.07,19.24.07s14.95,0,19.24-.07c-4.29,0-10.93-.08-19.24-.08S311.3,190.86,307,190.91Z"/><path class="cls-4" d="M370.26,198.21c0,.11-11.05.2-24.68.2s-24.69-.09-24.69-.2,11.05-.19,24.69-.19S370.26,198.1,370.26,198.21Z"/><path class="cls-4" d="M345.58,198.54c-6.59,0-12.79,0-17.46-.06-7.36-.06-7.36-.09-7.36-.27s0-.2,7.36-.26c4.66,0,10.86-.06,17.46-.06s12.79,0,17.45.06c7.36.06,7.36.09,7.36.26s0,.21-7.36.27C358.36,198.52,352.16,198.54,345.58,198.54Zm-19.25-.33c4.3,0,10.94.08,19.25.08s14.94,0,19.24-.08c-4.3,0-10.94-.07-19.24-.07s-14.95,0-19.25.07Z"/><path class="cls-4" d="M430.6,198.21c0,.11-11.05.2-24.69.2s-24.69-.09-24.69-.2,11.06-.19,24.69-.19S430.6,198.1,430.6,198.21Z"/><path class="cls-4" d="M405.91,198.54c-6.59,0-12.79,0-17.46-.06-7.35-.06-7.35-.09-7.35-.27s0-.2,7.35-.26c4.67,0,10.87-.06,17.46-.06s12.8,0,17.46.06c7.35.06,7.35.09,7.35.26s0,.21-7.35.27C418.7,198.52,412.5,198.54,405.91,198.54Zm-19.24-.33c4.29,0,10.94.08,19.24.08s14.95,0,19.24-.08c-4.29,0-10.94-.07-19.24-.07s-14.91,0-19.24.07Z"/><path class="cls-4" d="M409.62,183.6c0,.11-11.06.2-24.69.2s-24.69-.09-24.69-.2,11.05-.2,24.69-.2S409.62,183.49,409.62,183.6Z"/><path class="cls-4" d="M384.93,183.93c-6.59,0-12.79,0-17.46-.06-7.35-.06-7.35-.09-7.35-.27s0-.2,7.35-.26c4.66,0,10.86-.06,17.46-.06s12.79,0,17.46.06c7.35.06,7.35.09,7.35.26s0,.21-7.35.27C397.72,183.91,391.52,183.93,384.93,183.93Zm-19.23-.33c4.29,0,10.94.08,19.23.08s14.93,0,19.22-.08c-4.29,0-10.93-.07-19.22-.07s-14.93,0-19.23.07Z"/><path class="cls-8" d="M436.91,190.91c0,.11-17.16.2-38.33.2s-38.34-.09-38.34-.2,17.16-.2,38.34-.2S436.91,190.8,436.91,190.91Z"/><path class="cls-8" d="M398.58,191.23c-10.25,0-19.87,0-27.11-.06-8.41,0-10.59-.07-11.16-.15h0c-.16,0-.16-.06-.16-.1s0-.08.15-.11h0c.57-.09,2.76-.11,11.16-.16,7.25,0,16.88-.06,27.11-.06s19.85,0,27.1.06c8.41,0,10.59.07,11.16.16h0c.16,0,.16.06.16.11s0,.08-.16.1h0c-.57.08-2.75.11-11.16.15C418.44,191.21,408.82,191.23,398.58,191.23Zm-29.93-.32c7.06,0,17.91.07,29.93.07s22.87,0,29.93-.07c-7.06,0-17.91-.08-29.93-.08s-22.87,0-29.93.08Z"/><path class="cls-4" d="M310.94,198.21c0,.11-4,.2-8.95.2s-9-.09-9-.2,4-.19,9-.19S310.94,198.1,310.94,198.21Z"/><path class="cls-4" d="M302,198.54c-2.39,0-4.64,0-6.34-.06-2.74-.06-2.74-.11-2.74-.27s0-.2,2.74-.26c1.69,0,3.94-.06,6.34-.06s4.64,0,6.33.06c2.75.06,2.75.11,2.75.26s0,.21-2.75.27C306.63,198.52,304.38,198.54,302,198.54Zm-7-.33c1.56,0,4,.08,7,.08s5.43,0,7-.08c-1.56,0-4-.07-7-.07s-5.44,0-7,.07Z"/><path class="cls-12" d="M454.46,198.21c0,.11-4,.2-9,.2s-8.95-.09-8.95-.2,4-.19,8.95-.19S454.46,198.1,454.46,198.21Z"/><path class="cls-12" d="M445.5,198.54c-2.39,0-4.64,0-6.33-.06-2.75-.06-2.75-.11-2.75-.27s0-.2,2.75-.26c1.69,0,3.94-.06,6.33-.06s4.64,0,6.34.06c2.74.06,2.74.11,2.74.26s0,.21-2.74.27C450.14,198.52,447.89,198.54,445.5,198.54Zm-7-.33c1.56,0,4,.08,7,.08s5.43,0,7-.08c-1.56,0-4-.07-7-.07s-5.43,0-7,.07Z"/><rect class="cls-12" x="504.18" y="68.1" width="67.1" height="47.83"/><path class="cls-2" d="M571.81,75.2c0,.16-15.14.3-33.83.3s-33.83-.14-33.83-.3,15.15-.29,33.83-.29S571.81,75,571.81,75.2Z"/><path class="cls-2" d="M509.66,71.71a.91.91,0,1,1-1-.78h.12A.84.84,0,0,1,509.66,71.71Z"/><path class="cls-2" d="M513,71.71a.91.91,0,1,1-1-.78h.12A.84.84,0,0,1,513,71.71Z"/><path class="cls-2" d="M516.25,71.71a.86.86,0,0,1-.91.79.8.8,0,1,1-.25-1.58,1,1,0,0,1,.25,0A.86.86,0,0,1,516.25,71.71Z"/><path class="cls-2" d="M529,94.28c0,2.87-2.08,4.6-5.51,4.6h-3.62v4.26h-1.43V89.65h5C526.92,89.65,529,91.39,529,94.28Zm-1.42,0c0-2.16-1.43-3.39-4.13-3.39h-3.58v6.74h3.58C526.15,97.63,527.58,96.4,527.58,94.28Z"/><path class="cls-2" d="M543.35,89.65v13.49h-1.41V96.92H533.5v6.22h-1.42V89.65h1.42v6h8.44v-6Z"/><path class="cls-2" d="M558.3,94.28c0,2.87-2.08,4.6-5.51,4.6h-3.63v4.26h-1.42V89.65h5C556.22,89.65,558.3,91.39,558.3,94.28Zm-1.43,0c0-2.16-1.42-3.39-4.12-3.39h-3.59v6.74h3.59C555.45,97.63,556.87,96.4,556.87,94.28Z"/><rect class="cls-12" x="208.61" y="56.22" width="41.15" height="29.33"/><path class="cls-2" d="M222.49,69.84v5.83h-1.35V73.28h-2.65v2.39h-1.34V69.84h1.34v2.3h2.65v-2.3Z"/><path class="cls-2" d="M225.07,70.94h-1.86v-1.1h5.07v1.1h-1.86v4.73h-1.35Z"/><path class="cls-2" d="M236.41,69.84h1.35v4.73h2.92v1.1h-4.27Z"/><path class="cls-2" d="M234.33,75.67v-3.5l-1.71,2.88H232l-1.7-2.8v3.42H229V69.84h1.12l2.18,3.62,2.14-3.62h1.11v5.83Z"/><path class="cls-2" d="M250.08,60.58c0,.07-9.29.12-20.74.12s-20.75-.05-20.75-.12,9.29-.13,20.75-.13S250.08,60.5,250.08,60.58Z"/><path class="cls-2" d="M212,58.43a.56.56,0,1,1-.63-.47h.07A.52.52,0,0,1,212,58.43Z"/><path class="cls-2" d="M214,58.43a.56.56,0,1,1-.63-.47h.07A.52.52,0,0,1,214,58.43Z"/><path class="cls-2" d="M216,58.43a.56.56,0,1,1-.63-.47h.07A.52.52,0,0,1,216,58.43Z"/><rect class="cls-12" x="472.28" y="27.43" width="41.15" height="29.33"/><path class="cls-2" d="M513.75,31.79c0,.07-9.29.12-20.74.12s-20.75-.05-20.75-.12,9.29-.13,20.75-.13S513.75,31.71,513.75,31.79Z"/><path class="cls-2" d="M475.67,29.64a.57.57,0,0,1-.48.64.56.56,0,0,1-.63-.48.54.54,0,0,1,.47-.63h.08A.54.54,0,0,1,475.67,29.64Z"/><path class="cls-2" d="M477.67,29.64a.57.57,0,0,1-.48.64.56.56,0,0,1-.63-.48.54.54,0,0,1,.47-.63h.08A.54.54,0,0,1,477.67,29.64Z"/><path class="cls-2" d="M479.67,29.64a.57.57,0,0,1-.48.64.56.56,0,0,1-.63-.48.54.54,0,0,1,.47-.63h.08A.54.54,0,0,1,479.67,29.64Z"/><path class="cls-8" d="M120.4,118.09a9.07,9.07,0,0,1,8.91-9.21h.5a8.62,8.62,0,0,1,6.45,2.52l-.83.85a7.61,7.61,0,0,0-5.57-2.15,8,8,0,0,0,0,16,7.64,7.64,0,0,0,5.57-2.18l.83.86a8.69,8.69,0,0,1-6.45,2.53,9.05,9.05,0,0,1-9.4-8.7C120.4,118.44,120.4,118.27,120.4,118.09Z"/><path class="cls-8" d="M138.74,124.82l.6-1a8.64,8.64,0,0,0,6,2.28c3.63,0,5.24-1.58,5.24-3.55,0-5.44-11.32-2.18-11.32-8.86,0-2.56,2-4.82,6.42-4.82a9.68,9.68,0,0,1,5.47,1.64l-.5,1.06a8.93,8.93,0,0,0-5-1.53c-3.52,0-5.1,1.63-5.1,3.63,0,5.44,11.32,2.22,11.32,8.8,0,2.57-2,4.79-6.53,4.79A9.31,9.31,0,0,1,138.74,124.82Z"/><path class="cls-8" d="M154.52,124.82l.59-1a8.64,8.64,0,0,0,6,2.28c3.62,0,5.23-1.58,5.23-3.55,0-5.44-11.32-2.18-11.32-8.86,0-2.56,2-4.82,6.42-4.82a9.6,9.6,0,0,1,5.47,1.64l-.49,1.06a8.93,8.93,0,0,0-5-1.53c-3.52,0-5.1,1.63-5.1,3.63,0,5.44,11.32,2.22,11.32,8.8,0,2.57-2,4.79-6.53,4.79A9.31,9.31,0,0,1,154.52,124.82Z"/><path class="cls-18" d="M183.09,141.66V137.9c0-2.43,0-6-.06-10.49,0-9.06-.08-22.07-.14-37.95l.26.26-80.76.06h0l.32-.32v52.16l-.3-.29,58.1.14,16.66.08h.13l-16.6.08-58.29.15H102V89h.33l80.76.07h.25v.25c-.06,16-.1,29-.13,38.11,0,4.49-.05,8-.07,10.43v2.71C183.14,141.2,183.09,141.66,183.09,141.66Z"/><path class="cls-8" d="M183.09,97.24c0,.18-18.09.32-40.4.32s-40.4-.14-40.4-.32,18.08-.32,40.4-.32S183.09,97.07,183.09,97.24Z"/><path class="cls-8" d="M108.29,93.44a.93.93,0,0,1-1,.86h0a.87.87,0,1,1,1-.86Z"/><path class="cls-8" d="M111.89,93.44a.94.94,0,0,1-1,.86.87.87,0,1,1-.19-1.73h.19A.94.94,0,0,1,111.89,93.44Z"/><path class="cls-8" d="M115.48,93.44a1,1,0,1,1-1.12-.86h.12a.93.93,0,0,1,1,.86Z"/><text class="cls-19" transform="translate(485.86 47.38)">JS</text></svg>